%TF.GenerationSoftware,KiCad,Pcbnew,7.0.7*%
%TF.CreationDate,2023-11-20T10:45:52-05:00*%
%TF.ProjectId,Pocillo Termosensible,506f6369-6c6c-46f2-9054-65726d6f7365,rev?*%
%TF.SameCoordinates,Original*%
%TF.FileFunction,Drillmap*%
%TF.FilePolarity,Positive*%
%FSLAX45Y45*%
G04 Gerber Fmt 4.5, Leading zero omitted, Abs format (unit mm)*
G04 Created by KiCad (PCBNEW 7.0.7) date 2023-11-20 10:45:52*
%MOMM*%
%LPD*%
G01*
G04 APERTURE LIST*
%ADD10C,0.100000*%
%ADD11C,0.200000*%
%ADD12C,0.063500*%
%ADD13C,0.076200*%
%ADD14C,0.079000*%
%ADD15C,0.080000*%
%ADD16C,0.102000*%
G04 APERTURE END LIST*
D10*
X6070600Y-3048000D02*
X17272000Y-3048000D01*
X17272000Y-12141200D01*
X6070600Y-12141200D01*
X6070600Y-3048000D01*
D11*
D12*
X12541250Y-10382250D02*
X12604750Y-10445750D01*
X12604750Y-10382250D02*
X12541250Y-10445750D01*
X13176250Y-9747250D02*
X13239750Y-9810750D01*
X13239750Y-9747250D02*
X13176250Y-9810750D01*
D13*
X9563100Y-10236200D02*
G75*
G03*
X9563100Y-10236200I-38100J0D01*
G01*
X9563100Y-10490200D02*
G75*
G03*
X9563100Y-10490200I-38100J0D01*
G01*
X9563100Y-10744200D02*
G75*
G03*
X9563100Y-10744200I-38100J0D01*
G01*
X9563100Y-10998200D02*
G75*
G03*
X9563100Y-10998200I-38100J0D01*
G01*
X9563100Y-11252200D02*
G75*
G03*
X9563100Y-11252200I-38100J0D01*
G01*
X9563100Y-11506200D02*
G75*
G03*
X9563100Y-11506200I-38100J0D01*
G01*
D14*
X7927100Y-8677250D02*
X7927100Y-8756250D01*
X7887600Y-8716750D02*
X7966600Y-8716750D01*
X7927100Y-8931250D02*
X7927100Y-9010250D01*
X7887600Y-8970750D02*
X7966600Y-8970750D01*
X7927100Y-9185250D02*
X7927100Y-9264250D01*
X7887600Y-9224750D02*
X7966600Y-9224750D01*
D15*
X9172285Y-8156284D02*
X9172285Y-8099715D01*
X9115716Y-8099715D01*
X9115716Y-8156284D01*
X9172285Y-8156284D01*
X9172285Y-9172285D02*
X9172285Y-9115716D01*
X9115716Y-9115716D01*
X9115716Y-9172285D01*
X9172285Y-9172285D01*
X11509084Y-6124284D02*
X11509084Y-6067715D01*
X11452515Y-6067715D01*
X11452515Y-6124284D01*
X11509084Y-6124284D01*
X12525084Y-6124284D02*
X12525084Y-6067715D01*
X12468515Y-6067715D01*
X12468515Y-6124284D01*
X12525084Y-6124284D01*
D10*
X7416800Y-10473600D02*
X7466800Y-10423600D01*
X7416800Y-10373600D01*
X7366800Y-10423600D01*
X7416800Y-10473600D01*
D11*
X7316800Y-10473600D02*
X7516800Y-10473600D01*
X7516800Y-10473600D02*
G75*
G03*
X7516800Y-10373600I0J50000D01*
G01*
X7516800Y-10373600D02*
X7316800Y-10373600D01*
X7316800Y-10373600D02*
G75*
G03*
X7316800Y-10473600I0J-50000D01*
G01*
D10*
X7416800Y-11073600D02*
X7466800Y-11023600D01*
X7416800Y-10973600D01*
X7366800Y-11023600D01*
X7416800Y-11073600D01*
D11*
X7316800Y-11073600D02*
X7516800Y-11073600D01*
X7516800Y-11073600D02*
G75*
G03*
X7516800Y-10973600I0J50000D01*
G01*
X7516800Y-10973600D02*
X7316800Y-10973600D01*
X7316800Y-10973600D02*
G75*
G03*
X7316800Y-11073600I0J-50000D01*
G01*
D10*
X7886800Y-10773600D02*
X7936800Y-10723600D01*
X7886800Y-10673600D01*
X7836800Y-10723600D01*
X7886800Y-10773600D01*
D11*
X7936800Y-10823600D02*
X7936800Y-10623600D01*
X7936800Y-10623600D02*
G75*
G03*
X7836800Y-10623600I-50000J0D01*
G01*
X7836800Y-10623600D02*
X7836800Y-10823600D01*
X7836800Y-10823600D02*
G75*
G03*
X7936800Y-10823600I50000J0D01*
G01*
D10*
X8255000Y-7544000D02*
X8305000Y-7494000D01*
X8255000Y-7444000D01*
X8205000Y-7494000D01*
X8255000Y-7544000D01*
X8255000Y-8304000D02*
X8305000Y-8254000D01*
X8255000Y-8204000D01*
X8205000Y-8254000D01*
X8255000Y-8304000D01*
X9906000Y-8178000D02*
X9956000Y-8128000D01*
X9906000Y-8078000D01*
X9856000Y-8128000D01*
X9906000Y-8178000D01*
X9906000Y-8432000D02*
X9956000Y-8382000D01*
X9906000Y-8332000D01*
X9856000Y-8382000D01*
X9906000Y-8432000D01*
X9906000Y-8686000D02*
X9956000Y-8636000D01*
X9906000Y-8586000D01*
X9856000Y-8636000D01*
X9906000Y-8686000D01*
X9906000Y-8940000D02*
X9956000Y-8890000D01*
X9906000Y-8840000D01*
X9856000Y-8890000D01*
X9906000Y-8940000D01*
X10162500Y-5639500D02*
X10212500Y-5589500D01*
X10162500Y-5539500D01*
X10112500Y-5589500D01*
X10162500Y-5639500D01*
X10162500Y-5893500D02*
X10212500Y-5843500D01*
X10162500Y-5793500D01*
X10112500Y-5843500D01*
X10162500Y-5893500D01*
X10162500Y-6147500D02*
X10212500Y-6097500D01*
X10162500Y-6047500D01*
X10112500Y-6097500D01*
X10162500Y-6147500D01*
D16*
X13715800Y-6732900D02*
X13817800Y-6834900D01*
X13817800Y-6732900D02*
X13715800Y-6834900D01*
X13817800Y-6783900D02*
G75*
G03*
X13817800Y-6783900I-51000J0D01*
G01*
X13715800Y-6986900D02*
X13817800Y-7088900D01*
X13817800Y-6986900D02*
X13715800Y-7088900D01*
X13817800Y-7037900D02*
G75*
G03*
X13817800Y-7037900I-51000J0D01*
G01*
X13715800Y-7240900D02*
X13817800Y-7342900D01*
X13817800Y-7240900D02*
X13715800Y-7342900D01*
X13817800Y-7291900D02*
G75*
G03*
X13817800Y-7291900I-51000J0D01*
G01*
X13715800Y-7494900D02*
X13817800Y-7596900D01*
X13817800Y-7494900D02*
X13715800Y-7596900D01*
X13817800Y-7545900D02*
G75*
G03*
X13817800Y-7545900I-51000J0D01*
G01*
X13715800Y-7748900D02*
X13817800Y-7850900D01*
X13817800Y-7748900D02*
X13715800Y-7850900D01*
X13817800Y-7799900D02*
G75*
G03*
X13817800Y-7799900I-51000J0D01*
G01*
X13715800Y-8002900D02*
X13817800Y-8104900D01*
X13817800Y-8002900D02*
X13715800Y-8104900D01*
X13817800Y-8053900D02*
G75*
G03*
X13817800Y-8053900I-51000J0D01*
G01*
X13715800Y-8256900D02*
X13817800Y-8358900D01*
X13817800Y-8256900D02*
X13715800Y-8358900D01*
X13817800Y-8307900D02*
G75*
G03*
X13817800Y-8307900I-51000J0D01*
G01*
X13715800Y-8510900D02*
X13817800Y-8612900D01*
X13817800Y-8510900D02*
X13715800Y-8612900D01*
X13817800Y-8561900D02*
G75*
G03*
X13817800Y-8561900I-51000J0D01*
G01*
X13715800Y-8764900D02*
X13817800Y-8866900D01*
X13817800Y-8764900D02*
X13715800Y-8866900D01*
X13817800Y-8815900D02*
G75*
G03*
X13817800Y-8815900I-51000J0D01*
G01*
X13715800Y-9018900D02*
X13817800Y-9120900D01*
X13817800Y-9018900D02*
X13715800Y-9120900D01*
X13817800Y-9069900D02*
G75*
G03*
X13817800Y-9069900I-51000J0D01*
G01*
X13715800Y-9272900D02*
X13817800Y-9374900D01*
X13817800Y-9272900D02*
X13715800Y-9374900D01*
X13817800Y-9323900D02*
G75*
G03*
X13817800Y-9323900I-51000J0D01*
G01*
X13715800Y-9526900D02*
X13817800Y-9628900D01*
X13817800Y-9526900D02*
X13715800Y-9628900D01*
X13817800Y-9577900D02*
G75*
G03*
X13817800Y-9577900I-51000J0D01*
G01*
X13715800Y-9780900D02*
X13817800Y-9882900D01*
X13817800Y-9780900D02*
X13715800Y-9882900D01*
X13817800Y-9831900D02*
G75*
G03*
X13817800Y-9831900I-51000J0D01*
G01*
X13715800Y-10034900D02*
X13817800Y-10136900D01*
X13817800Y-10034900D02*
X13715800Y-10136900D01*
X13817800Y-10085900D02*
G75*
G03*
X13817800Y-10085900I-51000J0D01*
G01*
X13715800Y-10288900D02*
X13817800Y-10390900D01*
X13817800Y-10288900D02*
X13715800Y-10390900D01*
X13817800Y-10339900D02*
G75*
G03*
X13817800Y-10339900I-51000J0D01*
G01*
X16255800Y-6732900D02*
X16357800Y-6834900D01*
X16357800Y-6732900D02*
X16255800Y-6834900D01*
X16357800Y-6783900D02*
G75*
G03*
X16357800Y-6783900I-51000J0D01*
G01*
X16255800Y-6986900D02*
X16357800Y-7088900D01*
X16357800Y-6986900D02*
X16255800Y-7088900D01*
X16357800Y-7037900D02*
G75*
G03*
X16357800Y-7037900I-51000J0D01*
G01*
X16255800Y-7240900D02*
X16357800Y-7342900D01*
X16357800Y-7240900D02*
X16255800Y-7342900D01*
X16357800Y-7291900D02*
G75*
G03*
X16357800Y-7291900I-51000J0D01*
G01*
X16255800Y-7494900D02*
X16357800Y-7596900D01*
X16357800Y-7494900D02*
X16255800Y-7596900D01*
X16357800Y-7545900D02*
G75*
G03*
X16357800Y-7545900I-51000J0D01*
G01*
X16255800Y-7748900D02*
X16357800Y-7850900D01*
X16357800Y-7748900D02*
X16255800Y-7850900D01*
X16357800Y-7799900D02*
G75*
G03*
X16357800Y-7799900I-51000J0D01*
G01*
X16255800Y-8002900D02*
X16357800Y-8104900D01*
X16357800Y-8002900D02*
X16255800Y-8104900D01*
X16357800Y-8053900D02*
G75*
G03*
X16357800Y-8053900I-51000J0D01*
G01*
X16255800Y-8256900D02*
X16357800Y-8358900D01*
X16357800Y-8256900D02*
X16255800Y-8358900D01*
X16357800Y-8307900D02*
G75*
G03*
X16357800Y-8307900I-51000J0D01*
G01*
X16255800Y-8510900D02*
X16357800Y-8612900D01*
X16357800Y-8510900D02*
X16255800Y-8612900D01*
X16357800Y-8561900D02*
G75*
G03*
X16357800Y-8561900I-51000J0D01*
G01*
X16255800Y-8764900D02*
X16357800Y-8866900D01*
X16357800Y-8764900D02*
X16255800Y-8866900D01*
X16357800Y-8815900D02*
G75*
G03*
X16357800Y-8815900I-51000J0D01*
G01*
X16255800Y-9018900D02*
X16357800Y-9120900D01*
X16357800Y-9018900D02*
X16255800Y-9120900D01*
X16357800Y-9069900D02*
G75*
G03*
X16357800Y-9069900I-51000J0D01*
G01*
X16255800Y-9272900D02*
X16357800Y-9374900D01*
X16357800Y-9272900D02*
X16255800Y-9374900D01*
X16357800Y-9323900D02*
G75*
G03*
X16357800Y-9323900I-51000J0D01*
G01*
X16255800Y-9526900D02*
X16357800Y-9628900D01*
X16357800Y-9526900D02*
X16255800Y-9628900D01*
X16357800Y-9577900D02*
G75*
G03*
X16357800Y-9577900I-51000J0D01*
G01*
X16255800Y-9780900D02*
X16357800Y-9882900D01*
X16357800Y-9780900D02*
X16255800Y-9882900D01*
X16357800Y-9831900D02*
G75*
G03*
X16357800Y-9831900I-51000J0D01*
G01*
X16255800Y-10034900D02*
X16357800Y-10136900D01*
X16357800Y-10034900D02*
X16255800Y-10136900D01*
X16357800Y-10085900D02*
G75*
G03*
X16357800Y-10085900I-51000J0D01*
G01*
X16255800Y-10288900D02*
X16357800Y-10390900D01*
X16357800Y-10288900D02*
X16255800Y-10390900D01*
X16357800Y-10339900D02*
G75*
G03*
X16357800Y-10339900I-51000J0D01*
G01*
D11*
X6460000Y-4116400D02*
X6660000Y-4316400D01*
X6660000Y-4116400D02*
X6460000Y-4316400D01*
X6560000Y-4116400D02*
X6560000Y-4316400D01*
X6460000Y-4216400D02*
X6660000Y-4216400D01*
X13660000Y-4116400D02*
X13860000Y-4316400D01*
X13860000Y-4116400D02*
X13660000Y-4316400D01*
X13760000Y-4116400D02*
X13760000Y-4316400D01*
X13660000Y-4216400D02*
X13860000Y-4216400D01*
X6326377Y-12457684D02*
X6326377Y-12257684D01*
X6326377Y-12257684D02*
X6373996Y-12257684D01*
X6373996Y-12257684D02*
X6402567Y-12267208D01*
X6402567Y-12267208D02*
X6421615Y-12286255D01*
X6421615Y-12286255D02*
X6431139Y-12305303D01*
X6431139Y-12305303D02*
X6440662Y-12343398D01*
X6440662Y-12343398D02*
X6440662Y-12371969D01*
X6440662Y-12371969D02*
X6431139Y-12410065D01*
X6431139Y-12410065D02*
X6421615Y-12429112D01*
X6421615Y-12429112D02*
X6402567Y-12448160D01*
X6402567Y-12448160D02*
X6373996Y-12457684D01*
X6373996Y-12457684D02*
X6326377Y-12457684D01*
X6526377Y-12457684D02*
X6526377Y-12324350D01*
X6526377Y-12362446D02*
X6535901Y-12343398D01*
X6535901Y-12343398D02*
X6545424Y-12333874D01*
X6545424Y-12333874D02*
X6564472Y-12324350D01*
X6564472Y-12324350D02*
X6583520Y-12324350D01*
X6650186Y-12457684D02*
X6650186Y-12324350D01*
X6650186Y-12257684D02*
X6640662Y-12267208D01*
X6640662Y-12267208D02*
X6650186Y-12276731D01*
X6650186Y-12276731D02*
X6659710Y-12267208D01*
X6659710Y-12267208D02*
X6650186Y-12257684D01*
X6650186Y-12257684D02*
X6650186Y-12276731D01*
X6773996Y-12457684D02*
X6754948Y-12448160D01*
X6754948Y-12448160D02*
X6745424Y-12429112D01*
X6745424Y-12429112D02*
X6745424Y-12257684D01*
X6878758Y-12457684D02*
X6859710Y-12448160D01*
X6859710Y-12448160D02*
X6850186Y-12429112D01*
X6850186Y-12429112D02*
X6850186Y-12257684D01*
X7107329Y-12457684D02*
X7107329Y-12257684D01*
X7107329Y-12257684D02*
X7173996Y-12400541D01*
X7173996Y-12400541D02*
X7240662Y-12257684D01*
X7240662Y-12257684D02*
X7240662Y-12457684D01*
X7421615Y-12457684D02*
X7421615Y-12352922D01*
X7421615Y-12352922D02*
X7412091Y-12333874D01*
X7412091Y-12333874D02*
X7393043Y-12324350D01*
X7393043Y-12324350D02*
X7354948Y-12324350D01*
X7354948Y-12324350D02*
X7335901Y-12333874D01*
X7421615Y-12448160D02*
X7402567Y-12457684D01*
X7402567Y-12457684D02*
X7354948Y-12457684D01*
X7354948Y-12457684D02*
X7335901Y-12448160D01*
X7335901Y-12448160D02*
X7326377Y-12429112D01*
X7326377Y-12429112D02*
X7326377Y-12410065D01*
X7326377Y-12410065D02*
X7335901Y-12391017D01*
X7335901Y-12391017D02*
X7354948Y-12381493D01*
X7354948Y-12381493D02*
X7402567Y-12381493D01*
X7402567Y-12381493D02*
X7421615Y-12371969D01*
X7516853Y-12324350D02*
X7516853Y-12524350D01*
X7516853Y-12333874D02*
X7535901Y-12324350D01*
X7535901Y-12324350D02*
X7573996Y-12324350D01*
X7573996Y-12324350D02*
X7593043Y-12333874D01*
X7593043Y-12333874D02*
X7602567Y-12343398D01*
X7602567Y-12343398D02*
X7612091Y-12362446D01*
X7612091Y-12362446D02*
X7612091Y-12419588D01*
X7612091Y-12419588D02*
X7602567Y-12438636D01*
X7602567Y-12438636D02*
X7593043Y-12448160D01*
X7593043Y-12448160D02*
X7573996Y-12457684D01*
X7573996Y-12457684D02*
X7535901Y-12457684D01*
X7535901Y-12457684D02*
X7516853Y-12448160D01*
X7697805Y-12438636D02*
X7707329Y-12448160D01*
X7707329Y-12448160D02*
X7697805Y-12457684D01*
X7697805Y-12457684D02*
X7688282Y-12448160D01*
X7688282Y-12448160D02*
X7697805Y-12438636D01*
X7697805Y-12438636D02*
X7697805Y-12457684D01*
X7697805Y-12333874D02*
X7707329Y-12343398D01*
X7707329Y-12343398D02*
X7697805Y-12352922D01*
X7697805Y-12352922D02*
X7688282Y-12343398D01*
X7688282Y-12343398D02*
X7697805Y-12333874D01*
X7697805Y-12333874D02*
X7697805Y-12352922D01*
D12*
X6002100Y-12754450D02*
X6065600Y-12817950D01*
X6065600Y-12754450D02*
X6002100Y-12817950D01*
D11*
X6364472Y-12677684D02*
X6383520Y-12677684D01*
X6383520Y-12677684D02*
X6402567Y-12687208D01*
X6402567Y-12687208D02*
X6412091Y-12696731D01*
X6412091Y-12696731D02*
X6421615Y-12715779D01*
X6421615Y-12715779D02*
X6431139Y-12753874D01*
X6431139Y-12753874D02*
X6431139Y-12801493D01*
X6431139Y-12801493D02*
X6421615Y-12839588D01*
X6421615Y-12839588D02*
X6412091Y-12858636D01*
X6412091Y-12858636D02*
X6402567Y-12868160D01*
X6402567Y-12868160D02*
X6383520Y-12877684D01*
X6383520Y-12877684D02*
X6364472Y-12877684D01*
X6364472Y-12877684D02*
X6345424Y-12868160D01*
X6345424Y-12868160D02*
X6335901Y-12858636D01*
X6335901Y-12858636D02*
X6326377Y-12839588D01*
X6326377Y-12839588D02*
X6316853Y-12801493D01*
X6316853Y-12801493D02*
X6316853Y-12753874D01*
X6316853Y-12753874D02*
X6326377Y-12715779D01*
X6326377Y-12715779D02*
X6335901Y-12696731D01*
X6335901Y-12696731D02*
X6345424Y-12687208D01*
X6345424Y-12687208D02*
X6364472Y-12677684D01*
X6516853Y-12858636D02*
X6526377Y-12868160D01*
X6526377Y-12868160D02*
X6516853Y-12877684D01*
X6516853Y-12877684D02*
X6507329Y-12868160D01*
X6507329Y-12868160D02*
X6516853Y-12858636D01*
X6516853Y-12858636D02*
X6516853Y-12877684D01*
X6697805Y-12677684D02*
X6659710Y-12677684D01*
X6659710Y-12677684D02*
X6640662Y-12687208D01*
X6640662Y-12687208D02*
X6631139Y-12696731D01*
X6631139Y-12696731D02*
X6612091Y-12725303D01*
X6612091Y-12725303D02*
X6602567Y-12763398D01*
X6602567Y-12763398D02*
X6602567Y-12839588D01*
X6602567Y-12839588D02*
X6612091Y-12858636D01*
X6612091Y-12858636D02*
X6621615Y-12868160D01*
X6621615Y-12868160D02*
X6640662Y-12877684D01*
X6640662Y-12877684D02*
X6678758Y-12877684D01*
X6678758Y-12877684D02*
X6697805Y-12868160D01*
X6697805Y-12868160D02*
X6707329Y-12858636D01*
X6707329Y-12858636D02*
X6716853Y-12839588D01*
X6716853Y-12839588D02*
X6716853Y-12791969D01*
X6716853Y-12791969D02*
X6707329Y-12772922D01*
X6707329Y-12772922D02*
X6697805Y-12763398D01*
X6697805Y-12763398D02*
X6678758Y-12753874D01*
X6678758Y-12753874D02*
X6640662Y-12753874D01*
X6640662Y-12753874D02*
X6621615Y-12763398D01*
X6621615Y-12763398D02*
X6612091Y-12772922D01*
X6612091Y-12772922D02*
X6602567Y-12791969D01*
X6783520Y-12677684D02*
X6907329Y-12677684D01*
X6907329Y-12677684D02*
X6840662Y-12753874D01*
X6840662Y-12753874D02*
X6869234Y-12753874D01*
X6869234Y-12753874D02*
X6888282Y-12763398D01*
X6888282Y-12763398D02*
X6897805Y-12772922D01*
X6897805Y-12772922D02*
X6907329Y-12791969D01*
X6907329Y-12791969D02*
X6907329Y-12839588D01*
X6907329Y-12839588D02*
X6897805Y-12858636D01*
X6897805Y-12858636D02*
X6888282Y-12868160D01*
X6888282Y-12868160D02*
X6869234Y-12877684D01*
X6869234Y-12877684D02*
X6812091Y-12877684D01*
X6812091Y-12877684D02*
X6793043Y-12868160D01*
X6793043Y-12868160D02*
X6783520Y-12858636D01*
X7088282Y-12677684D02*
X6993043Y-12677684D01*
X6993043Y-12677684D02*
X6983520Y-12772922D01*
X6983520Y-12772922D02*
X6993043Y-12763398D01*
X6993043Y-12763398D02*
X7012091Y-12753874D01*
X7012091Y-12753874D02*
X7059710Y-12753874D01*
X7059710Y-12753874D02*
X7078758Y-12763398D01*
X7078758Y-12763398D02*
X7088282Y-12772922D01*
X7088282Y-12772922D02*
X7097805Y-12791969D01*
X7097805Y-12791969D02*
X7097805Y-12839588D01*
X7097805Y-12839588D02*
X7088282Y-12858636D01*
X7088282Y-12858636D02*
X7078758Y-12868160D01*
X7078758Y-12868160D02*
X7059710Y-12877684D01*
X7059710Y-12877684D02*
X7012091Y-12877684D01*
X7012091Y-12877684D02*
X6993043Y-12868160D01*
X6993043Y-12868160D02*
X6983520Y-12858636D01*
X7183520Y-12877684D02*
X7183520Y-12744350D01*
X7183520Y-12763398D02*
X7193043Y-12753874D01*
X7193043Y-12753874D02*
X7212091Y-12744350D01*
X7212091Y-12744350D02*
X7240663Y-12744350D01*
X7240663Y-12744350D02*
X7259710Y-12753874D01*
X7259710Y-12753874D02*
X7269234Y-12772922D01*
X7269234Y-12772922D02*
X7269234Y-12877684D01*
X7269234Y-12772922D02*
X7278758Y-12753874D01*
X7278758Y-12753874D02*
X7297805Y-12744350D01*
X7297805Y-12744350D02*
X7326377Y-12744350D01*
X7326377Y-12744350D02*
X7345424Y-12753874D01*
X7345424Y-12753874D02*
X7354948Y-12772922D01*
X7354948Y-12772922D02*
X7354948Y-12877684D01*
X7450186Y-12877684D02*
X7450186Y-12744350D01*
X7450186Y-12763398D02*
X7459710Y-12753874D01*
X7459710Y-12753874D02*
X7478758Y-12744350D01*
X7478758Y-12744350D02*
X7507329Y-12744350D01*
X7507329Y-12744350D02*
X7526377Y-12753874D01*
X7526377Y-12753874D02*
X7535901Y-12772922D01*
X7535901Y-12772922D02*
X7535901Y-12877684D01*
X7535901Y-12772922D02*
X7545424Y-12753874D01*
X7545424Y-12753874D02*
X7564472Y-12744350D01*
X7564472Y-12744350D02*
X7593043Y-12744350D01*
X7593043Y-12744350D02*
X7612091Y-12753874D01*
X7612091Y-12753874D02*
X7621615Y-12772922D01*
X7621615Y-12772922D02*
X7621615Y-12877684D01*
X8012091Y-12668160D02*
X7840663Y-12925303D01*
X8269234Y-12677684D02*
X8288282Y-12677684D01*
X8288282Y-12677684D02*
X8307329Y-12687208D01*
X8307329Y-12687208D02*
X8316853Y-12696731D01*
X8316853Y-12696731D02*
X8326377Y-12715779D01*
X8326377Y-12715779D02*
X8335901Y-12753874D01*
X8335901Y-12753874D02*
X8335901Y-12801493D01*
X8335901Y-12801493D02*
X8326377Y-12839588D01*
X8326377Y-12839588D02*
X8316853Y-12858636D01*
X8316853Y-12858636D02*
X8307329Y-12868160D01*
X8307329Y-12868160D02*
X8288282Y-12877684D01*
X8288282Y-12877684D02*
X8269234Y-12877684D01*
X8269234Y-12877684D02*
X8250186Y-12868160D01*
X8250186Y-12868160D02*
X8240663Y-12858636D01*
X8240663Y-12858636D02*
X8231139Y-12839588D01*
X8231139Y-12839588D02*
X8221615Y-12801493D01*
X8221615Y-12801493D02*
X8221615Y-12753874D01*
X8221615Y-12753874D02*
X8231139Y-12715779D01*
X8231139Y-12715779D02*
X8240663Y-12696731D01*
X8240663Y-12696731D02*
X8250186Y-12687208D01*
X8250186Y-12687208D02*
X8269234Y-12677684D01*
X8421615Y-12858636D02*
X8431139Y-12868160D01*
X8431139Y-12868160D02*
X8421615Y-12877684D01*
X8421615Y-12877684D02*
X8412091Y-12868160D01*
X8412091Y-12868160D02*
X8421615Y-12858636D01*
X8421615Y-12858636D02*
X8421615Y-12877684D01*
X8554948Y-12677684D02*
X8573996Y-12677684D01*
X8573996Y-12677684D02*
X8593044Y-12687208D01*
X8593044Y-12687208D02*
X8602568Y-12696731D01*
X8602568Y-12696731D02*
X8612091Y-12715779D01*
X8612091Y-12715779D02*
X8621615Y-12753874D01*
X8621615Y-12753874D02*
X8621615Y-12801493D01*
X8621615Y-12801493D02*
X8612091Y-12839588D01*
X8612091Y-12839588D02*
X8602568Y-12858636D01*
X8602568Y-12858636D02*
X8593044Y-12868160D01*
X8593044Y-12868160D02*
X8573996Y-12877684D01*
X8573996Y-12877684D02*
X8554948Y-12877684D01*
X8554948Y-12877684D02*
X8535901Y-12868160D01*
X8535901Y-12868160D02*
X8526377Y-12858636D01*
X8526377Y-12858636D02*
X8516853Y-12839588D01*
X8516853Y-12839588D02*
X8507329Y-12801493D01*
X8507329Y-12801493D02*
X8507329Y-12753874D01*
X8507329Y-12753874D02*
X8516853Y-12715779D01*
X8516853Y-12715779D02*
X8526377Y-12696731D01*
X8526377Y-12696731D02*
X8535901Y-12687208D01*
X8535901Y-12687208D02*
X8554948Y-12677684D01*
X8697806Y-12696731D02*
X8707329Y-12687208D01*
X8707329Y-12687208D02*
X8726377Y-12677684D01*
X8726377Y-12677684D02*
X8773996Y-12677684D01*
X8773996Y-12677684D02*
X8793044Y-12687208D01*
X8793044Y-12687208D02*
X8802568Y-12696731D01*
X8802568Y-12696731D02*
X8812091Y-12715779D01*
X8812091Y-12715779D02*
X8812091Y-12734827D01*
X8812091Y-12734827D02*
X8802568Y-12763398D01*
X8802568Y-12763398D02*
X8688282Y-12877684D01*
X8688282Y-12877684D02*
X8812091Y-12877684D01*
X8993044Y-12677684D02*
X8897806Y-12677684D01*
X8897806Y-12677684D02*
X8888282Y-12772922D01*
X8888282Y-12772922D02*
X8897806Y-12763398D01*
X8897806Y-12763398D02*
X8916853Y-12753874D01*
X8916853Y-12753874D02*
X8964472Y-12753874D01*
X8964472Y-12753874D02*
X8983520Y-12763398D01*
X8983520Y-12763398D02*
X8993044Y-12772922D01*
X8993044Y-12772922D02*
X9002568Y-12791969D01*
X9002568Y-12791969D02*
X9002568Y-12839588D01*
X9002568Y-12839588D02*
X8993044Y-12858636D01*
X8993044Y-12858636D02*
X8983520Y-12868160D01*
X8983520Y-12868160D02*
X8964472Y-12877684D01*
X8964472Y-12877684D02*
X8916853Y-12877684D01*
X8916853Y-12877684D02*
X8897806Y-12868160D01*
X8897806Y-12868160D02*
X8888282Y-12858636D01*
X9126377Y-12677684D02*
X9145425Y-12677684D01*
X9145425Y-12677684D02*
X9164472Y-12687208D01*
X9164472Y-12687208D02*
X9173996Y-12696731D01*
X9173996Y-12696731D02*
X9183520Y-12715779D01*
X9183520Y-12715779D02*
X9193044Y-12753874D01*
X9193044Y-12753874D02*
X9193044Y-12801493D01*
X9193044Y-12801493D02*
X9183520Y-12839588D01*
X9183520Y-12839588D02*
X9173996Y-12858636D01*
X9173996Y-12858636D02*
X9164472Y-12868160D01*
X9164472Y-12868160D02*
X9145425Y-12877684D01*
X9145425Y-12877684D02*
X9126377Y-12877684D01*
X9126377Y-12877684D02*
X9107329Y-12868160D01*
X9107329Y-12868160D02*
X9097806Y-12858636D01*
X9097806Y-12858636D02*
X9088282Y-12839588D01*
X9088282Y-12839588D02*
X9078758Y-12801493D01*
X9078758Y-12801493D02*
X9078758Y-12753874D01*
X9078758Y-12753874D02*
X9088282Y-12715779D01*
X9088282Y-12715779D02*
X9097806Y-12696731D01*
X9097806Y-12696731D02*
X9107329Y-12687208D01*
X9107329Y-12687208D02*
X9126377Y-12677684D01*
X9269234Y-12677684D02*
X9269234Y-12715779D01*
X9345425Y-12677684D02*
X9345425Y-12715779D01*
X9640663Y-12953874D02*
X9631139Y-12944350D01*
X9631139Y-12944350D02*
X9612091Y-12915779D01*
X9612091Y-12915779D02*
X9602568Y-12896731D01*
X9602568Y-12896731D02*
X9593044Y-12868160D01*
X9593044Y-12868160D02*
X9583520Y-12820541D01*
X9583520Y-12820541D02*
X9583520Y-12782446D01*
X9583520Y-12782446D02*
X9593044Y-12734827D01*
X9593044Y-12734827D02*
X9602568Y-12706255D01*
X9602568Y-12706255D02*
X9612091Y-12687208D01*
X9612091Y-12687208D02*
X9631139Y-12658636D01*
X9631139Y-12658636D02*
X9640663Y-12649112D01*
X9707330Y-12696731D02*
X9716853Y-12687208D01*
X9716853Y-12687208D02*
X9735901Y-12677684D01*
X9735901Y-12677684D02*
X9783520Y-12677684D01*
X9783520Y-12677684D02*
X9802568Y-12687208D01*
X9802568Y-12687208D02*
X9812091Y-12696731D01*
X9812091Y-12696731D02*
X9821615Y-12715779D01*
X9821615Y-12715779D02*
X9821615Y-12734827D01*
X9821615Y-12734827D02*
X9812091Y-12763398D01*
X9812091Y-12763398D02*
X9697806Y-12877684D01*
X9697806Y-12877684D02*
X9821615Y-12877684D01*
X10059711Y-12877684D02*
X10059711Y-12677684D01*
X10145425Y-12877684D02*
X10145425Y-12772922D01*
X10145425Y-12772922D02*
X10135901Y-12753874D01*
X10135901Y-12753874D02*
X10116853Y-12744350D01*
X10116853Y-12744350D02*
X10088282Y-12744350D01*
X10088282Y-12744350D02*
X10069234Y-12753874D01*
X10069234Y-12753874D02*
X10059711Y-12763398D01*
X10269234Y-12877684D02*
X10250187Y-12868160D01*
X10250187Y-12868160D02*
X10240663Y-12858636D01*
X10240663Y-12858636D02*
X10231139Y-12839588D01*
X10231139Y-12839588D02*
X10231139Y-12782446D01*
X10231139Y-12782446D02*
X10240663Y-12763398D01*
X10240663Y-12763398D02*
X10250187Y-12753874D01*
X10250187Y-12753874D02*
X10269234Y-12744350D01*
X10269234Y-12744350D02*
X10297806Y-12744350D01*
X10297806Y-12744350D02*
X10316853Y-12753874D01*
X10316853Y-12753874D02*
X10326377Y-12763398D01*
X10326377Y-12763398D02*
X10335901Y-12782446D01*
X10335901Y-12782446D02*
X10335901Y-12839588D01*
X10335901Y-12839588D02*
X10326377Y-12858636D01*
X10326377Y-12858636D02*
X10316853Y-12868160D01*
X10316853Y-12868160D02*
X10297806Y-12877684D01*
X10297806Y-12877684D02*
X10269234Y-12877684D01*
X10450187Y-12877684D02*
X10431139Y-12868160D01*
X10431139Y-12868160D02*
X10421615Y-12849112D01*
X10421615Y-12849112D02*
X10421615Y-12677684D01*
X10602568Y-12868160D02*
X10583520Y-12877684D01*
X10583520Y-12877684D02*
X10545425Y-12877684D01*
X10545425Y-12877684D02*
X10526377Y-12868160D01*
X10526377Y-12868160D02*
X10516853Y-12849112D01*
X10516853Y-12849112D02*
X10516853Y-12772922D01*
X10516853Y-12772922D02*
X10526377Y-12753874D01*
X10526377Y-12753874D02*
X10545425Y-12744350D01*
X10545425Y-12744350D02*
X10583520Y-12744350D01*
X10583520Y-12744350D02*
X10602568Y-12753874D01*
X10602568Y-12753874D02*
X10612092Y-12772922D01*
X10612092Y-12772922D02*
X10612092Y-12791969D01*
X10612092Y-12791969D02*
X10516853Y-12811017D01*
X10688282Y-12868160D02*
X10707330Y-12877684D01*
X10707330Y-12877684D02*
X10745425Y-12877684D01*
X10745425Y-12877684D02*
X10764473Y-12868160D01*
X10764473Y-12868160D02*
X10773996Y-12849112D01*
X10773996Y-12849112D02*
X10773996Y-12839588D01*
X10773996Y-12839588D02*
X10764473Y-12820541D01*
X10764473Y-12820541D02*
X10745425Y-12811017D01*
X10745425Y-12811017D02*
X10716853Y-12811017D01*
X10716853Y-12811017D02*
X10697806Y-12801493D01*
X10697806Y-12801493D02*
X10688282Y-12782446D01*
X10688282Y-12782446D02*
X10688282Y-12772922D01*
X10688282Y-12772922D02*
X10697806Y-12753874D01*
X10697806Y-12753874D02*
X10716853Y-12744350D01*
X10716853Y-12744350D02*
X10745425Y-12744350D01*
X10745425Y-12744350D02*
X10764473Y-12753874D01*
X10840663Y-12953874D02*
X10850187Y-12944350D01*
X10850187Y-12944350D02*
X10869234Y-12915779D01*
X10869234Y-12915779D02*
X10878758Y-12896731D01*
X10878758Y-12896731D02*
X10888282Y-12868160D01*
X10888282Y-12868160D02*
X10897806Y-12820541D01*
X10897806Y-12820541D02*
X10897806Y-12782446D01*
X10897806Y-12782446D02*
X10888282Y-12734827D01*
X10888282Y-12734827D02*
X10878758Y-12706255D01*
X10878758Y-12706255D02*
X10869234Y-12687208D01*
X10869234Y-12687208D02*
X10850187Y-12658636D01*
X10850187Y-12658636D02*
X10840663Y-12649112D01*
D13*
X6065600Y-13050200D02*
G75*
G03*
X6065600Y-13050200I-38100J0D01*
G01*
D11*
X6364472Y-12941684D02*
X6383520Y-12941684D01*
X6383520Y-12941684D02*
X6402567Y-12951208D01*
X6402567Y-12951208D02*
X6412091Y-12960731D01*
X6412091Y-12960731D02*
X6421615Y-12979779D01*
X6421615Y-12979779D02*
X6431139Y-13017874D01*
X6431139Y-13017874D02*
X6431139Y-13065493D01*
X6431139Y-13065493D02*
X6421615Y-13103588D01*
X6421615Y-13103588D02*
X6412091Y-13122636D01*
X6412091Y-13122636D02*
X6402567Y-13132160D01*
X6402567Y-13132160D02*
X6383520Y-13141684D01*
X6383520Y-13141684D02*
X6364472Y-13141684D01*
X6364472Y-13141684D02*
X6345424Y-13132160D01*
X6345424Y-13132160D02*
X6335901Y-13122636D01*
X6335901Y-13122636D02*
X6326377Y-13103588D01*
X6326377Y-13103588D02*
X6316853Y-13065493D01*
X6316853Y-13065493D02*
X6316853Y-13017874D01*
X6316853Y-13017874D02*
X6326377Y-12979779D01*
X6326377Y-12979779D02*
X6335901Y-12960731D01*
X6335901Y-12960731D02*
X6345424Y-12951208D01*
X6345424Y-12951208D02*
X6364472Y-12941684D01*
X6516853Y-13122636D02*
X6526377Y-13132160D01*
X6526377Y-13132160D02*
X6516853Y-13141684D01*
X6516853Y-13141684D02*
X6507329Y-13132160D01*
X6507329Y-13132160D02*
X6516853Y-13122636D01*
X6516853Y-13122636D02*
X6516853Y-13141684D01*
X6593043Y-12941684D02*
X6726377Y-12941684D01*
X6726377Y-12941684D02*
X6640662Y-13141684D01*
X6888282Y-12941684D02*
X6850186Y-12941684D01*
X6850186Y-12941684D02*
X6831139Y-12951208D01*
X6831139Y-12951208D02*
X6821615Y-12960731D01*
X6821615Y-12960731D02*
X6802567Y-12989303D01*
X6802567Y-12989303D02*
X6793043Y-13027398D01*
X6793043Y-13027398D02*
X6793043Y-13103588D01*
X6793043Y-13103588D02*
X6802567Y-13122636D01*
X6802567Y-13122636D02*
X6812091Y-13132160D01*
X6812091Y-13132160D02*
X6831139Y-13141684D01*
X6831139Y-13141684D02*
X6869234Y-13141684D01*
X6869234Y-13141684D02*
X6888282Y-13132160D01*
X6888282Y-13132160D02*
X6897805Y-13122636D01*
X6897805Y-13122636D02*
X6907329Y-13103588D01*
X6907329Y-13103588D02*
X6907329Y-13055969D01*
X6907329Y-13055969D02*
X6897805Y-13036922D01*
X6897805Y-13036922D02*
X6888282Y-13027398D01*
X6888282Y-13027398D02*
X6869234Y-13017874D01*
X6869234Y-13017874D02*
X6831139Y-13017874D01*
X6831139Y-13017874D02*
X6812091Y-13027398D01*
X6812091Y-13027398D02*
X6802567Y-13036922D01*
X6802567Y-13036922D02*
X6793043Y-13055969D01*
X6983520Y-12960731D02*
X6993043Y-12951208D01*
X6993043Y-12951208D02*
X7012091Y-12941684D01*
X7012091Y-12941684D02*
X7059710Y-12941684D01*
X7059710Y-12941684D02*
X7078758Y-12951208D01*
X7078758Y-12951208D02*
X7088282Y-12960731D01*
X7088282Y-12960731D02*
X7097805Y-12979779D01*
X7097805Y-12979779D02*
X7097805Y-12998827D01*
X7097805Y-12998827D02*
X7088282Y-13027398D01*
X7088282Y-13027398D02*
X6973996Y-13141684D01*
X6973996Y-13141684D02*
X7097805Y-13141684D01*
X7183520Y-13141684D02*
X7183520Y-13008350D01*
X7183520Y-13027398D02*
X7193043Y-13017874D01*
X7193043Y-13017874D02*
X7212091Y-13008350D01*
X7212091Y-13008350D02*
X7240663Y-13008350D01*
X7240663Y-13008350D02*
X7259710Y-13017874D01*
X7259710Y-13017874D02*
X7269234Y-13036922D01*
X7269234Y-13036922D02*
X7269234Y-13141684D01*
X7269234Y-13036922D02*
X7278758Y-13017874D01*
X7278758Y-13017874D02*
X7297805Y-13008350D01*
X7297805Y-13008350D02*
X7326377Y-13008350D01*
X7326377Y-13008350D02*
X7345424Y-13017874D01*
X7345424Y-13017874D02*
X7354948Y-13036922D01*
X7354948Y-13036922D02*
X7354948Y-13141684D01*
X7450186Y-13141684D02*
X7450186Y-13008350D01*
X7450186Y-13027398D02*
X7459710Y-13017874D01*
X7459710Y-13017874D02*
X7478758Y-13008350D01*
X7478758Y-13008350D02*
X7507329Y-13008350D01*
X7507329Y-13008350D02*
X7526377Y-13017874D01*
X7526377Y-13017874D02*
X7535901Y-13036922D01*
X7535901Y-13036922D02*
X7535901Y-13141684D01*
X7535901Y-13036922D02*
X7545424Y-13017874D01*
X7545424Y-13017874D02*
X7564472Y-13008350D01*
X7564472Y-13008350D02*
X7593043Y-13008350D01*
X7593043Y-13008350D02*
X7612091Y-13017874D01*
X7612091Y-13017874D02*
X7621615Y-13036922D01*
X7621615Y-13036922D02*
X7621615Y-13141684D01*
X8012091Y-12932160D02*
X7840663Y-13189303D01*
X8269234Y-12941684D02*
X8288282Y-12941684D01*
X8288282Y-12941684D02*
X8307329Y-12951208D01*
X8307329Y-12951208D02*
X8316853Y-12960731D01*
X8316853Y-12960731D02*
X8326377Y-12979779D01*
X8326377Y-12979779D02*
X8335901Y-13017874D01*
X8335901Y-13017874D02*
X8335901Y-13065493D01*
X8335901Y-13065493D02*
X8326377Y-13103588D01*
X8326377Y-13103588D02*
X8316853Y-13122636D01*
X8316853Y-13122636D02*
X8307329Y-13132160D01*
X8307329Y-13132160D02*
X8288282Y-13141684D01*
X8288282Y-13141684D02*
X8269234Y-13141684D01*
X8269234Y-13141684D02*
X8250186Y-13132160D01*
X8250186Y-13132160D02*
X8240663Y-13122636D01*
X8240663Y-13122636D02*
X8231139Y-13103588D01*
X8231139Y-13103588D02*
X8221615Y-13065493D01*
X8221615Y-13065493D02*
X8221615Y-13017874D01*
X8221615Y-13017874D02*
X8231139Y-12979779D01*
X8231139Y-12979779D02*
X8240663Y-12960731D01*
X8240663Y-12960731D02*
X8250186Y-12951208D01*
X8250186Y-12951208D02*
X8269234Y-12941684D01*
X8421615Y-13122636D02*
X8431139Y-13132160D01*
X8431139Y-13132160D02*
X8421615Y-13141684D01*
X8421615Y-13141684D02*
X8412091Y-13132160D01*
X8412091Y-13132160D02*
X8421615Y-13122636D01*
X8421615Y-13122636D02*
X8421615Y-13141684D01*
X8554948Y-12941684D02*
X8573996Y-12941684D01*
X8573996Y-12941684D02*
X8593044Y-12951208D01*
X8593044Y-12951208D02*
X8602568Y-12960731D01*
X8602568Y-12960731D02*
X8612091Y-12979779D01*
X8612091Y-12979779D02*
X8621615Y-13017874D01*
X8621615Y-13017874D02*
X8621615Y-13065493D01*
X8621615Y-13065493D02*
X8612091Y-13103588D01*
X8612091Y-13103588D02*
X8602568Y-13122636D01*
X8602568Y-13122636D02*
X8593044Y-13132160D01*
X8593044Y-13132160D02*
X8573996Y-13141684D01*
X8573996Y-13141684D02*
X8554948Y-13141684D01*
X8554948Y-13141684D02*
X8535901Y-13132160D01*
X8535901Y-13132160D02*
X8526377Y-13122636D01*
X8526377Y-13122636D02*
X8516853Y-13103588D01*
X8516853Y-13103588D02*
X8507329Y-13065493D01*
X8507329Y-13065493D02*
X8507329Y-13017874D01*
X8507329Y-13017874D02*
X8516853Y-12979779D01*
X8516853Y-12979779D02*
X8526377Y-12960731D01*
X8526377Y-12960731D02*
X8535901Y-12951208D01*
X8535901Y-12951208D02*
X8554948Y-12941684D01*
X8688282Y-12941684D02*
X8812091Y-12941684D01*
X8812091Y-12941684D02*
X8745425Y-13017874D01*
X8745425Y-13017874D02*
X8773996Y-13017874D01*
X8773996Y-13017874D02*
X8793044Y-13027398D01*
X8793044Y-13027398D02*
X8802568Y-13036922D01*
X8802568Y-13036922D02*
X8812091Y-13055969D01*
X8812091Y-13055969D02*
X8812091Y-13103588D01*
X8812091Y-13103588D02*
X8802568Y-13122636D01*
X8802568Y-13122636D02*
X8793044Y-13132160D01*
X8793044Y-13132160D02*
X8773996Y-13141684D01*
X8773996Y-13141684D02*
X8716853Y-13141684D01*
X8716853Y-13141684D02*
X8697806Y-13132160D01*
X8697806Y-13132160D02*
X8688282Y-13122636D01*
X8935901Y-12941684D02*
X8954949Y-12941684D01*
X8954949Y-12941684D02*
X8973996Y-12951208D01*
X8973996Y-12951208D02*
X8983520Y-12960731D01*
X8983520Y-12960731D02*
X8993044Y-12979779D01*
X8993044Y-12979779D02*
X9002568Y-13017874D01*
X9002568Y-13017874D02*
X9002568Y-13065493D01*
X9002568Y-13065493D02*
X8993044Y-13103588D01*
X8993044Y-13103588D02*
X8983520Y-13122636D01*
X8983520Y-13122636D02*
X8973996Y-13132160D01*
X8973996Y-13132160D02*
X8954949Y-13141684D01*
X8954949Y-13141684D02*
X8935901Y-13141684D01*
X8935901Y-13141684D02*
X8916853Y-13132160D01*
X8916853Y-13132160D02*
X8907329Y-13122636D01*
X8907329Y-13122636D02*
X8897806Y-13103588D01*
X8897806Y-13103588D02*
X8888282Y-13065493D01*
X8888282Y-13065493D02*
X8888282Y-13017874D01*
X8888282Y-13017874D02*
X8897806Y-12979779D01*
X8897806Y-12979779D02*
X8907329Y-12960731D01*
X8907329Y-12960731D02*
X8916853Y-12951208D01*
X8916853Y-12951208D02*
X8935901Y-12941684D01*
X9126377Y-12941684D02*
X9145425Y-12941684D01*
X9145425Y-12941684D02*
X9164472Y-12951208D01*
X9164472Y-12951208D02*
X9173996Y-12960731D01*
X9173996Y-12960731D02*
X9183520Y-12979779D01*
X9183520Y-12979779D02*
X9193044Y-13017874D01*
X9193044Y-13017874D02*
X9193044Y-13065493D01*
X9193044Y-13065493D02*
X9183520Y-13103588D01*
X9183520Y-13103588D02*
X9173996Y-13122636D01*
X9173996Y-13122636D02*
X9164472Y-13132160D01*
X9164472Y-13132160D02*
X9145425Y-13141684D01*
X9145425Y-13141684D02*
X9126377Y-13141684D01*
X9126377Y-13141684D02*
X9107329Y-13132160D01*
X9107329Y-13132160D02*
X9097806Y-13122636D01*
X9097806Y-13122636D02*
X9088282Y-13103588D01*
X9088282Y-13103588D02*
X9078758Y-13065493D01*
X9078758Y-13065493D02*
X9078758Y-13017874D01*
X9078758Y-13017874D02*
X9088282Y-12979779D01*
X9088282Y-12979779D02*
X9097806Y-12960731D01*
X9097806Y-12960731D02*
X9107329Y-12951208D01*
X9107329Y-12951208D02*
X9126377Y-12941684D01*
X9269234Y-12941684D02*
X9269234Y-12979779D01*
X9345425Y-12941684D02*
X9345425Y-12979779D01*
X9640663Y-13217874D02*
X9631139Y-13208350D01*
X9631139Y-13208350D02*
X9612091Y-13179779D01*
X9612091Y-13179779D02*
X9602568Y-13160731D01*
X9602568Y-13160731D02*
X9593044Y-13132160D01*
X9593044Y-13132160D02*
X9583520Y-13084541D01*
X9583520Y-13084541D02*
X9583520Y-13046446D01*
X9583520Y-13046446D02*
X9593044Y-12998827D01*
X9593044Y-12998827D02*
X9602568Y-12970255D01*
X9602568Y-12970255D02*
X9612091Y-12951208D01*
X9612091Y-12951208D02*
X9631139Y-12922636D01*
X9631139Y-12922636D02*
X9640663Y-12913112D01*
X9802568Y-12941684D02*
X9764472Y-12941684D01*
X9764472Y-12941684D02*
X9745425Y-12951208D01*
X9745425Y-12951208D02*
X9735901Y-12960731D01*
X9735901Y-12960731D02*
X9716853Y-12989303D01*
X9716853Y-12989303D02*
X9707330Y-13027398D01*
X9707330Y-13027398D02*
X9707330Y-13103588D01*
X9707330Y-13103588D02*
X9716853Y-13122636D01*
X9716853Y-13122636D02*
X9726377Y-13132160D01*
X9726377Y-13132160D02*
X9745425Y-13141684D01*
X9745425Y-13141684D02*
X9783520Y-13141684D01*
X9783520Y-13141684D02*
X9802568Y-13132160D01*
X9802568Y-13132160D02*
X9812091Y-13122636D01*
X9812091Y-13122636D02*
X9821615Y-13103588D01*
X9821615Y-13103588D02*
X9821615Y-13055969D01*
X9821615Y-13055969D02*
X9812091Y-13036922D01*
X9812091Y-13036922D02*
X9802568Y-13027398D01*
X9802568Y-13027398D02*
X9783520Y-13017874D01*
X9783520Y-13017874D02*
X9745425Y-13017874D01*
X9745425Y-13017874D02*
X9726377Y-13027398D01*
X9726377Y-13027398D02*
X9716853Y-13036922D01*
X9716853Y-13036922D02*
X9707330Y-13055969D01*
X10059711Y-13141684D02*
X10059711Y-12941684D01*
X10145425Y-13141684D02*
X10145425Y-13036922D01*
X10145425Y-13036922D02*
X10135901Y-13017874D01*
X10135901Y-13017874D02*
X10116853Y-13008350D01*
X10116853Y-13008350D02*
X10088282Y-13008350D01*
X10088282Y-13008350D02*
X10069234Y-13017874D01*
X10069234Y-13017874D02*
X10059711Y-13027398D01*
X10269234Y-13141684D02*
X10250187Y-13132160D01*
X10250187Y-13132160D02*
X10240663Y-13122636D01*
X10240663Y-13122636D02*
X10231139Y-13103588D01*
X10231139Y-13103588D02*
X10231139Y-13046446D01*
X10231139Y-13046446D02*
X10240663Y-13027398D01*
X10240663Y-13027398D02*
X10250187Y-13017874D01*
X10250187Y-13017874D02*
X10269234Y-13008350D01*
X10269234Y-13008350D02*
X10297806Y-13008350D01*
X10297806Y-13008350D02*
X10316853Y-13017874D01*
X10316853Y-13017874D02*
X10326377Y-13027398D01*
X10326377Y-13027398D02*
X10335901Y-13046446D01*
X10335901Y-13046446D02*
X10335901Y-13103588D01*
X10335901Y-13103588D02*
X10326377Y-13122636D01*
X10326377Y-13122636D02*
X10316853Y-13132160D01*
X10316853Y-13132160D02*
X10297806Y-13141684D01*
X10297806Y-13141684D02*
X10269234Y-13141684D01*
X10450187Y-13141684D02*
X10431139Y-13132160D01*
X10431139Y-13132160D02*
X10421615Y-13113112D01*
X10421615Y-13113112D02*
X10421615Y-12941684D01*
X10602568Y-13132160D02*
X10583520Y-13141684D01*
X10583520Y-13141684D02*
X10545425Y-13141684D01*
X10545425Y-13141684D02*
X10526377Y-13132160D01*
X10526377Y-13132160D02*
X10516853Y-13113112D01*
X10516853Y-13113112D02*
X10516853Y-13036922D01*
X10516853Y-13036922D02*
X10526377Y-13017874D01*
X10526377Y-13017874D02*
X10545425Y-13008350D01*
X10545425Y-13008350D02*
X10583520Y-13008350D01*
X10583520Y-13008350D02*
X10602568Y-13017874D01*
X10602568Y-13017874D02*
X10612092Y-13036922D01*
X10612092Y-13036922D02*
X10612092Y-13055969D01*
X10612092Y-13055969D02*
X10516853Y-13075017D01*
X10688282Y-13132160D02*
X10707330Y-13141684D01*
X10707330Y-13141684D02*
X10745425Y-13141684D01*
X10745425Y-13141684D02*
X10764473Y-13132160D01*
X10764473Y-13132160D02*
X10773996Y-13113112D01*
X10773996Y-13113112D02*
X10773996Y-13103588D01*
X10773996Y-13103588D02*
X10764473Y-13084541D01*
X10764473Y-13084541D02*
X10745425Y-13075017D01*
X10745425Y-13075017D02*
X10716853Y-13075017D01*
X10716853Y-13075017D02*
X10697806Y-13065493D01*
X10697806Y-13065493D02*
X10688282Y-13046446D01*
X10688282Y-13046446D02*
X10688282Y-13036922D01*
X10688282Y-13036922D02*
X10697806Y-13017874D01*
X10697806Y-13017874D02*
X10716853Y-13008350D01*
X10716853Y-13008350D02*
X10745425Y-13008350D01*
X10745425Y-13008350D02*
X10764473Y-13017874D01*
X10840663Y-13217874D02*
X10850187Y-13208350D01*
X10850187Y-13208350D02*
X10869234Y-13179779D01*
X10869234Y-13179779D02*
X10878758Y-13160731D01*
X10878758Y-13160731D02*
X10888282Y-13132160D01*
X10888282Y-13132160D02*
X10897806Y-13084541D01*
X10897806Y-13084541D02*
X10897806Y-13046446D01*
X10897806Y-13046446D02*
X10888282Y-12998827D01*
X10888282Y-12998827D02*
X10878758Y-12970255D01*
X10878758Y-12970255D02*
X10869234Y-12951208D01*
X10869234Y-12951208D02*
X10850187Y-12922636D01*
X10850187Y-12922636D02*
X10840663Y-12913112D01*
D14*
X6026100Y-13274700D02*
X6026100Y-13353700D01*
X5986600Y-13314200D02*
X6065600Y-13314200D01*
D11*
X6364472Y-13205684D02*
X6383520Y-13205684D01*
X6383520Y-13205684D02*
X6402567Y-13215208D01*
X6402567Y-13215208D02*
X6412091Y-13224731D01*
X6412091Y-13224731D02*
X6421615Y-13243779D01*
X6421615Y-13243779D02*
X6431139Y-13281874D01*
X6431139Y-13281874D02*
X6431139Y-13329493D01*
X6431139Y-13329493D02*
X6421615Y-13367588D01*
X6421615Y-13367588D02*
X6412091Y-13386636D01*
X6412091Y-13386636D02*
X6402567Y-13396160D01*
X6402567Y-13396160D02*
X6383520Y-13405684D01*
X6383520Y-13405684D02*
X6364472Y-13405684D01*
X6364472Y-13405684D02*
X6345424Y-13396160D01*
X6345424Y-13396160D02*
X6335901Y-13386636D01*
X6335901Y-13386636D02*
X6326377Y-13367588D01*
X6326377Y-13367588D02*
X6316853Y-13329493D01*
X6316853Y-13329493D02*
X6316853Y-13281874D01*
X6316853Y-13281874D02*
X6326377Y-13243779D01*
X6326377Y-13243779D02*
X6335901Y-13224731D01*
X6335901Y-13224731D02*
X6345424Y-13215208D01*
X6345424Y-13215208D02*
X6364472Y-13205684D01*
X6516853Y-13386636D02*
X6526377Y-13396160D01*
X6526377Y-13396160D02*
X6516853Y-13405684D01*
X6516853Y-13405684D02*
X6507329Y-13396160D01*
X6507329Y-13396160D02*
X6516853Y-13386636D01*
X6516853Y-13386636D02*
X6516853Y-13405684D01*
X6593043Y-13205684D02*
X6726377Y-13205684D01*
X6726377Y-13205684D02*
X6640662Y-13405684D01*
X6812091Y-13405684D02*
X6850186Y-13405684D01*
X6850186Y-13405684D02*
X6869234Y-13396160D01*
X6869234Y-13396160D02*
X6878758Y-13386636D01*
X6878758Y-13386636D02*
X6897805Y-13358065D01*
X6897805Y-13358065D02*
X6907329Y-13319969D01*
X6907329Y-13319969D02*
X6907329Y-13243779D01*
X6907329Y-13243779D02*
X6897805Y-13224731D01*
X6897805Y-13224731D02*
X6888282Y-13215208D01*
X6888282Y-13215208D02*
X6869234Y-13205684D01*
X6869234Y-13205684D02*
X6831139Y-13205684D01*
X6831139Y-13205684D02*
X6812091Y-13215208D01*
X6812091Y-13215208D02*
X6802567Y-13224731D01*
X6802567Y-13224731D02*
X6793043Y-13243779D01*
X6793043Y-13243779D02*
X6793043Y-13291398D01*
X6793043Y-13291398D02*
X6802567Y-13310446D01*
X6802567Y-13310446D02*
X6812091Y-13319969D01*
X6812091Y-13319969D02*
X6831139Y-13329493D01*
X6831139Y-13329493D02*
X6869234Y-13329493D01*
X6869234Y-13329493D02*
X6888282Y-13319969D01*
X6888282Y-13319969D02*
X6897805Y-13310446D01*
X6897805Y-13310446D02*
X6907329Y-13291398D01*
X7031139Y-13205684D02*
X7050186Y-13205684D01*
X7050186Y-13205684D02*
X7069234Y-13215208D01*
X7069234Y-13215208D02*
X7078758Y-13224731D01*
X7078758Y-13224731D02*
X7088282Y-13243779D01*
X7088282Y-13243779D02*
X7097805Y-13281874D01*
X7097805Y-13281874D02*
X7097805Y-13329493D01*
X7097805Y-13329493D02*
X7088282Y-13367588D01*
X7088282Y-13367588D02*
X7078758Y-13386636D01*
X7078758Y-13386636D02*
X7069234Y-13396160D01*
X7069234Y-13396160D02*
X7050186Y-13405684D01*
X7050186Y-13405684D02*
X7031139Y-13405684D01*
X7031139Y-13405684D02*
X7012091Y-13396160D01*
X7012091Y-13396160D02*
X7002567Y-13386636D01*
X7002567Y-13386636D02*
X6993043Y-13367588D01*
X6993043Y-13367588D02*
X6983520Y-13329493D01*
X6983520Y-13329493D02*
X6983520Y-13281874D01*
X6983520Y-13281874D02*
X6993043Y-13243779D01*
X6993043Y-13243779D02*
X7002567Y-13224731D01*
X7002567Y-13224731D02*
X7012091Y-13215208D01*
X7012091Y-13215208D02*
X7031139Y-13205684D01*
X7183520Y-13405684D02*
X7183520Y-13272350D01*
X7183520Y-13291398D02*
X7193043Y-13281874D01*
X7193043Y-13281874D02*
X7212091Y-13272350D01*
X7212091Y-13272350D02*
X7240663Y-13272350D01*
X7240663Y-13272350D02*
X7259710Y-13281874D01*
X7259710Y-13281874D02*
X7269234Y-13300922D01*
X7269234Y-13300922D02*
X7269234Y-13405684D01*
X7269234Y-13300922D02*
X7278758Y-13281874D01*
X7278758Y-13281874D02*
X7297805Y-13272350D01*
X7297805Y-13272350D02*
X7326377Y-13272350D01*
X7326377Y-13272350D02*
X7345424Y-13281874D01*
X7345424Y-13281874D02*
X7354948Y-13300922D01*
X7354948Y-13300922D02*
X7354948Y-13405684D01*
X7450186Y-13405684D02*
X7450186Y-13272350D01*
X7450186Y-13291398D02*
X7459710Y-13281874D01*
X7459710Y-13281874D02*
X7478758Y-13272350D01*
X7478758Y-13272350D02*
X7507329Y-13272350D01*
X7507329Y-13272350D02*
X7526377Y-13281874D01*
X7526377Y-13281874D02*
X7535901Y-13300922D01*
X7535901Y-13300922D02*
X7535901Y-13405684D01*
X7535901Y-13300922D02*
X7545424Y-13281874D01*
X7545424Y-13281874D02*
X7564472Y-13272350D01*
X7564472Y-13272350D02*
X7593043Y-13272350D01*
X7593043Y-13272350D02*
X7612091Y-13281874D01*
X7612091Y-13281874D02*
X7621615Y-13300922D01*
X7621615Y-13300922D02*
X7621615Y-13405684D01*
X8012091Y-13196160D02*
X7840663Y-13453303D01*
X8269234Y-13205684D02*
X8288282Y-13205684D01*
X8288282Y-13205684D02*
X8307329Y-13215208D01*
X8307329Y-13215208D02*
X8316853Y-13224731D01*
X8316853Y-13224731D02*
X8326377Y-13243779D01*
X8326377Y-13243779D02*
X8335901Y-13281874D01*
X8335901Y-13281874D02*
X8335901Y-13329493D01*
X8335901Y-13329493D02*
X8326377Y-13367588D01*
X8326377Y-13367588D02*
X8316853Y-13386636D01*
X8316853Y-13386636D02*
X8307329Y-13396160D01*
X8307329Y-13396160D02*
X8288282Y-13405684D01*
X8288282Y-13405684D02*
X8269234Y-13405684D01*
X8269234Y-13405684D02*
X8250186Y-13396160D01*
X8250186Y-13396160D02*
X8240663Y-13386636D01*
X8240663Y-13386636D02*
X8231139Y-13367588D01*
X8231139Y-13367588D02*
X8221615Y-13329493D01*
X8221615Y-13329493D02*
X8221615Y-13281874D01*
X8221615Y-13281874D02*
X8231139Y-13243779D01*
X8231139Y-13243779D02*
X8240663Y-13224731D01*
X8240663Y-13224731D02*
X8250186Y-13215208D01*
X8250186Y-13215208D02*
X8269234Y-13205684D01*
X8421615Y-13386636D02*
X8431139Y-13396160D01*
X8431139Y-13396160D02*
X8421615Y-13405684D01*
X8421615Y-13405684D02*
X8412091Y-13396160D01*
X8412091Y-13396160D02*
X8421615Y-13386636D01*
X8421615Y-13386636D02*
X8421615Y-13405684D01*
X8554948Y-13205684D02*
X8573996Y-13205684D01*
X8573996Y-13205684D02*
X8593044Y-13215208D01*
X8593044Y-13215208D02*
X8602568Y-13224731D01*
X8602568Y-13224731D02*
X8612091Y-13243779D01*
X8612091Y-13243779D02*
X8621615Y-13281874D01*
X8621615Y-13281874D02*
X8621615Y-13329493D01*
X8621615Y-13329493D02*
X8612091Y-13367588D01*
X8612091Y-13367588D02*
X8602568Y-13386636D01*
X8602568Y-13386636D02*
X8593044Y-13396160D01*
X8593044Y-13396160D02*
X8573996Y-13405684D01*
X8573996Y-13405684D02*
X8554948Y-13405684D01*
X8554948Y-13405684D02*
X8535901Y-13396160D01*
X8535901Y-13396160D02*
X8526377Y-13386636D01*
X8526377Y-13386636D02*
X8516853Y-13367588D01*
X8516853Y-13367588D02*
X8507329Y-13329493D01*
X8507329Y-13329493D02*
X8507329Y-13281874D01*
X8507329Y-13281874D02*
X8516853Y-13243779D01*
X8516853Y-13243779D02*
X8526377Y-13224731D01*
X8526377Y-13224731D02*
X8535901Y-13215208D01*
X8535901Y-13215208D02*
X8554948Y-13205684D01*
X8688282Y-13205684D02*
X8812091Y-13205684D01*
X8812091Y-13205684D02*
X8745425Y-13281874D01*
X8745425Y-13281874D02*
X8773996Y-13281874D01*
X8773996Y-13281874D02*
X8793044Y-13291398D01*
X8793044Y-13291398D02*
X8802568Y-13300922D01*
X8802568Y-13300922D02*
X8812091Y-13319969D01*
X8812091Y-13319969D02*
X8812091Y-13367588D01*
X8812091Y-13367588D02*
X8802568Y-13386636D01*
X8802568Y-13386636D02*
X8793044Y-13396160D01*
X8793044Y-13396160D02*
X8773996Y-13405684D01*
X8773996Y-13405684D02*
X8716853Y-13405684D01*
X8716853Y-13405684D02*
X8697806Y-13396160D01*
X8697806Y-13396160D02*
X8688282Y-13386636D01*
X9002568Y-13405684D02*
X8888282Y-13405684D01*
X8945425Y-13405684D02*
X8945425Y-13205684D01*
X8945425Y-13205684D02*
X8926377Y-13234255D01*
X8926377Y-13234255D02*
X8907329Y-13253303D01*
X8907329Y-13253303D02*
X8888282Y-13262827D01*
X9193044Y-13405684D02*
X9078758Y-13405684D01*
X9135901Y-13405684D02*
X9135901Y-13205684D01*
X9135901Y-13205684D02*
X9116853Y-13234255D01*
X9116853Y-13234255D02*
X9097806Y-13253303D01*
X9097806Y-13253303D02*
X9078758Y-13262827D01*
X9269234Y-13205684D02*
X9269234Y-13243779D01*
X9345425Y-13205684D02*
X9345425Y-13243779D01*
X9640663Y-13481874D02*
X9631139Y-13472350D01*
X9631139Y-13472350D02*
X9612091Y-13443779D01*
X9612091Y-13443779D02*
X9602568Y-13424731D01*
X9602568Y-13424731D02*
X9593044Y-13396160D01*
X9593044Y-13396160D02*
X9583520Y-13348541D01*
X9583520Y-13348541D02*
X9583520Y-13310446D01*
X9583520Y-13310446D02*
X9593044Y-13262827D01*
X9593044Y-13262827D02*
X9602568Y-13234255D01*
X9602568Y-13234255D02*
X9612091Y-13215208D01*
X9612091Y-13215208D02*
X9631139Y-13186636D01*
X9631139Y-13186636D02*
X9640663Y-13177112D01*
X9697806Y-13205684D02*
X9821615Y-13205684D01*
X9821615Y-13205684D02*
X9754949Y-13281874D01*
X9754949Y-13281874D02*
X9783520Y-13281874D01*
X9783520Y-13281874D02*
X9802568Y-13291398D01*
X9802568Y-13291398D02*
X9812091Y-13300922D01*
X9812091Y-13300922D02*
X9821615Y-13319969D01*
X9821615Y-13319969D02*
X9821615Y-13367588D01*
X9821615Y-13367588D02*
X9812091Y-13386636D01*
X9812091Y-13386636D02*
X9802568Y-13396160D01*
X9802568Y-13396160D02*
X9783520Y-13405684D01*
X9783520Y-13405684D02*
X9726377Y-13405684D01*
X9726377Y-13405684D02*
X9707330Y-13396160D01*
X9707330Y-13396160D02*
X9697806Y-13386636D01*
X10059711Y-13405684D02*
X10059711Y-13205684D01*
X10145425Y-13405684D02*
X10145425Y-13300922D01*
X10145425Y-13300922D02*
X10135901Y-13281874D01*
X10135901Y-13281874D02*
X10116853Y-13272350D01*
X10116853Y-13272350D02*
X10088282Y-13272350D01*
X10088282Y-13272350D02*
X10069234Y-13281874D01*
X10069234Y-13281874D02*
X10059711Y-13291398D01*
X10269234Y-13405684D02*
X10250187Y-13396160D01*
X10250187Y-13396160D02*
X10240663Y-13386636D01*
X10240663Y-13386636D02*
X10231139Y-13367588D01*
X10231139Y-13367588D02*
X10231139Y-13310446D01*
X10231139Y-13310446D02*
X10240663Y-13291398D01*
X10240663Y-13291398D02*
X10250187Y-13281874D01*
X10250187Y-13281874D02*
X10269234Y-13272350D01*
X10269234Y-13272350D02*
X10297806Y-13272350D01*
X10297806Y-13272350D02*
X10316853Y-13281874D01*
X10316853Y-13281874D02*
X10326377Y-13291398D01*
X10326377Y-13291398D02*
X10335901Y-13310446D01*
X10335901Y-13310446D02*
X10335901Y-13367588D01*
X10335901Y-13367588D02*
X10326377Y-13386636D01*
X10326377Y-13386636D02*
X10316853Y-13396160D01*
X10316853Y-13396160D02*
X10297806Y-13405684D01*
X10297806Y-13405684D02*
X10269234Y-13405684D01*
X10450187Y-13405684D02*
X10431139Y-13396160D01*
X10431139Y-13396160D02*
X10421615Y-13377112D01*
X10421615Y-13377112D02*
X10421615Y-13205684D01*
X10602568Y-13396160D02*
X10583520Y-13405684D01*
X10583520Y-13405684D02*
X10545425Y-13405684D01*
X10545425Y-13405684D02*
X10526377Y-13396160D01*
X10526377Y-13396160D02*
X10516853Y-13377112D01*
X10516853Y-13377112D02*
X10516853Y-13300922D01*
X10516853Y-13300922D02*
X10526377Y-13281874D01*
X10526377Y-13281874D02*
X10545425Y-13272350D01*
X10545425Y-13272350D02*
X10583520Y-13272350D01*
X10583520Y-13272350D02*
X10602568Y-13281874D01*
X10602568Y-13281874D02*
X10612092Y-13300922D01*
X10612092Y-13300922D02*
X10612092Y-13319969D01*
X10612092Y-13319969D02*
X10516853Y-13339017D01*
X10688282Y-13396160D02*
X10707330Y-13405684D01*
X10707330Y-13405684D02*
X10745425Y-13405684D01*
X10745425Y-13405684D02*
X10764473Y-13396160D01*
X10764473Y-13396160D02*
X10773996Y-13377112D01*
X10773996Y-13377112D02*
X10773996Y-13367588D01*
X10773996Y-13367588D02*
X10764473Y-13348541D01*
X10764473Y-13348541D02*
X10745425Y-13339017D01*
X10745425Y-13339017D02*
X10716853Y-13339017D01*
X10716853Y-13339017D02*
X10697806Y-13329493D01*
X10697806Y-13329493D02*
X10688282Y-13310446D01*
X10688282Y-13310446D02*
X10688282Y-13300922D01*
X10688282Y-13300922D02*
X10697806Y-13281874D01*
X10697806Y-13281874D02*
X10716853Y-13272350D01*
X10716853Y-13272350D02*
X10745425Y-13272350D01*
X10745425Y-13272350D02*
X10764473Y-13281874D01*
X10840663Y-13481874D02*
X10850187Y-13472350D01*
X10850187Y-13472350D02*
X10869234Y-13443779D01*
X10869234Y-13443779D02*
X10878758Y-13424731D01*
X10878758Y-13424731D02*
X10888282Y-13396160D01*
X10888282Y-13396160D02*
X10897806Y-13348541D01*
X10897806Y-13348541D02*
X10897806Y-13310446D01*
X10897806Y-13310446D02*
X10888282Y-13262827D01*
X10888282Y-13262827D02*
X10878758Y-13234255D01*
X10878758Y-13234255D02*
X10869234Y-13215208D01*
X10869234Y-13215208D02*
X10850187Y-13186636D01*
X10850187Y-13186636D02*
X10840663Y-13177112D01*
D15*
X6053884Y-13606484D02*
X6053884Y-13549915D01*
X5997315Y-13549915D01*
X5997315Y-13606484D01*
X6053884Y-13606484D01*
D11*
X6364472Y-13469684D02*
X6383520Y-13469684D01*
X6383520Y-13469684D02*
X6402567Y-13479208D01*
X6402567Y-13479208D02*
X6412091Y-13488731D01*
X6412091Y-13488731D02*
X6421615Y-13507779D01*
X6421615Y-13507779D02*
X6431139Y-13545874D01*
X6431139Y-13545874D02*
X6431139Y-13593493D01*
X6431139Y-13593493D02*
X6421615Y-13631588D01*
X6421615Y-13631588D02*
X6412091Y-13650636D01*
X6412091Y-13650636D02*
X6402567Y-13660160D01*
X6402567Y-13660160D02*
X6383520Y-13669684D01*
X6383520Y-13669684D02*
X6364472Y-13669684D01*
X6364472Y-13669684D02*
X6345424Y-13660160D01*
X6345424Y-13660160D02*
X6335901Y-13650636D01*
X6335901Y-13650636D02*
X6326377Y-13631588D01*
X6326377Y-13631588D02*
X6316853Y-13593493D01*
X6316853Y-13593493D02*
X6316853Y-13545874D01*
X6316853Y-13545874D02*
X6326377Y-13507779D01*
X6326377Y-13507779D02*
X6335901Y-13488731D01*
X6335901Y-13488731D02*
X6345424Y-13479208D01*
X6345424Y-13479208D02*
X6364472Y-13469684D01*
X6516853Y-13650636D02*
X6526377Y-13660160D01*
X6526377Y-13660160D02*
X6516853Y-13669684D01*
X6516853Y-13669684D02*
X6507329Y-13660160D01*
X6507329Y-13660160D02*
X6516853Y-13650636D01*
X6516853Y-13650636D02*
X6516853Y-13669684D01*
X6640662Y-13555398D02*
X6621615Y-13545874D01*
X6621615Y-13545874D02*
X6612091Y-13536350D01*
X6612091Y-13536350D02*
X6602567Y-13517303D01*
X6602567Y-13517303D02*
X6602567Y-13507779D01*
X6602567Y-13507779D02*
X6612091Y-13488731D01*
X6612091Y-13488731D02*
X6621615Y-13479208D01*
X6621615Y-13479208D02*
X6640662Y-13469684D01*
X6640662Y-13469684D02*
X6678758Y-13469684D01*
X6678758Y-13469684D02*
X6697805Y-13479208D01*
X6697805Y-13479208D02*
X6707329Y-13488731D01*
X6707329Y-13488731D02*
X6716853Y-13507779D01*
X6716853Y-13507779D02*
X6716853Y-13517303D01*
X6716853Y-13517303D02*
X6707329Y-13536350D01*
X6707329Y-13536350D02*
X6697805Y-13545874D01*
X6697805Y-13545874D02*
X6678758Y-13555398D01*
X6678758Y-13555398D02*
X6640662Y-13555398D01*
X6640662Y-13555398D02*
X6621615Y-13564922D01*
X6621615Y-13564922D02*
X6612091Y-13574446D01*
X6612091Y-13574446D02*
X6602567Y-13593493D01*
X6602567Y-13593493D02*
X6602567Y-13631588D01*
X6602567Y-13631588D02*
X6612091Y-13650636D01*
X6612091Y-13650636D02*
X6621615Y-13660160D01*
X6621615Y-13660160D02*
X6640662Y-13669684D01*
X6640662Y-13669684D02*
X6678758Y-13669684D01*
X6678758Y-13669684D02*
X6697805Y-13660160D01*
X6697805Y-13660160D02*
X6707329Y-13650636D01*
X6707329Y-13650636D02*
X6716853Y-13631588D01*
X6716853Y-13631588D02*
X6716853Y-13593493D01*
X6716853Y-13593493D02*
X6707329Y-13574446D01*
X6707329Y-13574446D02*
X6697805Y-13564922D01*
X6697805Y-13564922D02*
X6678758Y-13555398D01*
X6840662Y-13469684D02*
X6859710Y-13469684D01*
X6859710Y-13469684D02*
X6878758Y-13479208D01*
X6878758Y-13479208D02*
X6888282Y-13488731D01*
X6888282Y-13488731D02*
X6897805Y-13507779D01*
X6897805Y-13507779D02*
X6907329Y-13545874D01*
X6907329Y-13545874D02*
X6907329Y-13593493D01*
X6907329Y-13593493D02*
X6897805Y-13631588D01*
X6897805Y-13631588D02*
X6888282Y-13650636D01*
X6888282Y-13650636D02*
X6878758Y-13660160D01*
X6878758Y-13660160D02*
X6859710Y-13669684D01*
X6859710Y-13669684D02*
X6840662Y-13669684D01*
X6840662Y-13669684D02*
X6821615Y-13660160D01*
X6821615Y-13660160D02*
X6812091Y-13650636D01*
X6812091Y-13650636D02*
X6802567Y-13631588D01*
X6802567Y-13631588D02*
X6793043Y-13593493D01*
X6793043Y-13593493D02*
X6793043Y-13545874D01*
X6793043Y-13545874D02*
X6802567Y-13507779D01*
X6802567Y-13507779D02*
X6812091Y-13488731D01*
X6812091Y-13488731D02*
X6821615Y-13479208D01*
X6821615Y-13479208D02*
X6840662Y-13469684D01*
X7031139Y-13469684D02*
X7050186Y-13469684D01*
X7050186Y-13469684D02*
X7069234Y-13479208D01*
X7069234Y-13479208D02*
X7078758Y-13488731D01*
X7078758Y-13488731D02*
X7088282Y-13507779D01*
X7088282Y-13507779D02*
X7097805Y-13545874D01*
X7097805Y-13545874D02*
X7097805Y-13593493D01*
X7097805Y-13593493D02*
X7088282Y-13631588D01*
X7088282Y-13631588D02*
X7078758Y-13650636D01*
X7078758Y-13650636D02*
X7069234Y-13660160D01*
X7069234Y-13660160D02*
X7050186Y-13669684D01*
X7050186Y-13669684D02*
X7031139Y-13669684D01*
X7031139Y-13669684D02*
X7012091Y-13660160D01*
X7012091Y-13660160D02*
X7002567Y-13650636D01*
X7002567Y-13650636D02*
X6993043Y-13631588D01*
X6993043Y-13631588D02*
X6983520Y-13593493D01*
X6983520Y-13593493D02*
X6983520Y-13545874D01*
X6983520Y-13545874D02*
X6993043Y-13507779D01*
X6993043Y-13507779D02*
X7002567Y-13488731D01*
X7002567Y-13488731D02*
X7012091Y-13479208D01*
X7012091Y-13479208D02*
X7031139Y-13469684D01*
X7183520Y-13669684D02*
X7183520Y-13536350D01*
X7183520Y-13555398D02*
X7193043Y-13545874D01*
X7193043Y-13545874D02*
X7212091Y-13536350D01*
X7212091Y-13536350D02*
X7240663Y-13536350D01*
X7240663Y-13536350D02*
X7259710Y-13545874D01*
X7259710Y-13545874D02*
X7269234Y-13564922D01*
X7269234Y-13564922D02*
X7269234Y-13669684D01*
X7269234Y-13564922D02*
X7278758Y-13545874D01*
X7278758Y-13545874D02*
X7297805Y-13536350D01*
X7297805Y-13536350D02*
X7326377Y-13536350D01*
X7326377Y-13536350D02*
X7345424Y-13545874D01*
X7345424Y-13545874D02*
X7354948Y-13564922D01*
X7354948Y-13564922D02*
X7354948Y-13669684D01*
X7450186Y-13669684D02*
X7450186Y-13536350D01*
X7450186Y-13555398D02*
X7459710Y-13545874D01*
X7459710Y-13545874D02*
X7478758Y-13536350D01*
X7478758Y-13536350D02*
X7507329Y-13536350D01*
X7507329Y-13536350D02*
X7526377Y-13545874D01*
X7526377Y-13545874D02*
X7535901Y-13564922D01*
X7535901Y-13564922D02*
X7535901Y-13669684D01*
X7535901Y-13564922D02*
X7545424Y-13545874D01*
X7545424Y-13545874D02*
X7564472Y-13536350D01*
X7564472Y-13536350D02*
X7593043Y-13536350D01*
X7593043Y-13536350D02*
X7612091Y-13545874D01*
X7612091Y-13545874D02*
X7621615Y-13564922D01*
X7621615Y-13564922D02*
X7621615Y-13669684D01*
X8012091Y-13460160D02*
X7840663Y-13717303D01*
X8269234Y-13469684D02*
X8288282Y-13469684D01*
X8288282Y-13469684D02*
X8307329Y-13479208D01*
X8307329Y-13479208D02*
X8316853Y-13488731D01*
X8316853Y-13488731D02*
X8326377Y-13507779D01*
X8326377Y-13507779D02*
X8335901Y-13545874D01*
X8335901Y-13545874D02*
X8335901Y-13593493D01*
X8335901Y-13593493D02*
X8326377Y-13631588D01*
X8326377Y-13631588D02*
X8316853Y-13650636D01*
X8316853Y-13650636D02*
X8307329Y-13660160D01*
X8307329Y-13660160D02*
X8288282Y-13669684D01*
X8288282Y-13669684D02*
X8269234Y-13669684D01*
X8269234Y-13669684D02*
X8250186Y-13660160D01*
X8250186Y-13660160D02*
X8240663Y-13650636D01*
X8240663Y-13650636D02*
X8231139Y-13631588D01*
X8231139Y-13631588D02*
X8221615Y-13593493D01*
X8221615Y-13593493D02*
X8221615Y-13545874D01*
X8221615Y-13545874D02*
X8231139Y-13507779D01*
X8231139Y-13507779D02*
X8240663Y-13488731D01*
X8240663Y-13488731D02*
X8250186Y-13479208D01*
X8250186Y-13479208D02*
X8269234Y-13469684D01*
X8421615Y-13650636D02*
X8431139Y-13660160D01*
X8431139Y-13660160D02*
X8421615Y-13669684D01*
X8421615Y-13669684D02*
X8412091Y-13660160D01*
X8412091Y-13660160D02*
X8421615Y-13650636D01*
X8421615Y-13650636D02*
X8421615Y-13669684D01*
X8554948Y-13469684D02*
X8573996Y-13469684D01*
X8573996Y-13469684D02*
X8593044Y-13479208D01*
X8593044Y-13479208D02*
X8602568Y-13488731D01*
X8602568Y-13488731D02*
X8612091Y-13507779D01*
X8612091Y-13507779D02*
X8621615Y-13545874D01*
X8621615Y-13545874D02*
X8621615Y-13593493D01*
X8621615Y-13593493D02*
X8612091Y-13631588D01*
X8612091Y-13631588D02*
X8602568Y-13650636D01*
X8602568Y-13650636D02*
X8593044Y-13660160D01*
X8593044Y-13660160D02*
X8573996Y-13669684D01*
X8573996Y-13669684D02*
X8554948Y-13669684D01*
X8554948Y-13669684D02*
X8535901Y-13660160D01*
X8535901Y-13660160D02*
X8526377Y-13650636D01*
X8526377Y-13650636D02*
X8516853Y-13631588D01*
X8516853Y-13631588D02*
X8507329Y-13593493D01*
X8507329Y-13593493D02*
X8507329Y-13545874D01*
X8507329Y-13545874D02*
X8516853Y-13507779D01*
X8516853Y-13507779D02*
X8526377Y-13488731D01*
X8526377Y-13488731D02*
X8535901Y-13479208D01*
X8535901Y-13479208D02*
X8554948Y-13469684D01*
X8688282Y-13469684D02*
X8812091Y-13469684D01*
X8812091Y-13469684D02*
X8745425Y-13545874D01*
X8745425Y-13545874D02*
X8773996Y-13545874D01*
X8773996Y-13545874D02*
X8793044Y-13555398D01*
X8793044Y-13555398D02*
X8802568Y-13564922D01*
X8802568Y-13564922D02*
X8812091Y-13583969D01*
X8812091Y-13583969D02*
X8812091Y-13631588D01*
X8812091Y-13631588D02*
X8802568Y-13650636D01*
X8802568Y-13650636D02*
X8793044Y-13660160D01*
X8793044Y-13660160D02*
X8773996Y-13669684D01*
X8773996Y-13669684D02*
X8716853Y-13669684D01*
X8716853Y-13669684D02*
X8697806Y-13660160D01*
X8697806Y-13660160D02*
X8688282Y-13650636D01*
X9002568Y-13669684D02*
X8888282Y-13669684D01*
X8945425Y-13669684D02*
X8945425Y-13469684D01*
X8945425Y-13469684D02*
X8926377Y-13498255D01*
X8926377Y-13498255D02*
X8907329Y-13517303D01*
X8907329Y-13517303D02*
X8888282Y-13526827D01*
X9183520Y-13469684D02*
X9088282Y-13469684D01*
X9088282Y-13469684D02*
X9078758Y-13564922D01*
X9078758Y-13564922D02*
X9088282Y-13555398D01*
X9088282Y-13555398D02*
X9107329Y-13545874D01*
X9107329Y-13545874D02*
X9154949Y-13545874D01*
X9154949Y-13545874D02*
X9173996Y-13555398D01*
X9173996Y-13555398D02*
X9183520Y-13564922D01*
X9183520Y-13564922D02*
X9193044Y-13583969D01*
X9193044Y-13583969D02*
X9193044Y-13631588D01*
X9193044Y-13631588D02*
X9183520Y-13650636D01*
X9183520Y-13650636D02*
X9173996Y-13660160D01*
X9173996Y-13660160D02*
X9154949Y-13669684D01*
X9154949Y-13669684D02*
X9107329Y-13669684D01*
X9107329Y-13669684D02*
X9088282Y-13660160D01*
X9088282Y-13660160D02*
X9078758Y-13650636D01*
X9269234Y-13469684D02*
X9269234Y-13507779D01*
X9345425Y-13469684D02*
X9345425Y-13507779D01*
X9640663Y-13745874D02*
X9631139Y-13736350D01*
X9631139Y-13736350D02*
X9612091Y-13707779D01*
X9612091Y-13707779D02*
X9602568Y-13688731D01*
X9602568Y-13688731D02*
X9593044Y-13660160D01*
X9593044Y-13660160D02*
X9583520Y-13612541D01*
X9583520Y-13612541D02*
X9583520Y-13574446D01*
X9583520Y-13574446D02*
X9593044Y-13526827D01*
X9593044Y-13526827D02*
X9602568Y-13498255D01*
X9602568Y-13498255D02*
X9612091Y-13479208D01*
X9612091Y-13479208D02*
X9631139Y-13450636D01*
X9631139Y-13450636D02*
X9640663Y-13441112D01*
X9802568Y-13536350D02*
X9802568Y-13669684D01*
X9754949Y-13460160D02*
X9707330Y-13603017D01*
X9707330Y-13603017D02*
X9831139Y-13603017D01*
X10059711Y-13669684D02*
X10059711Y-13469684D01*
X10145425Y-13669684D02*
X10145425Y-13564922D01*
X10145425Y-13564922D02*
X10135901Y-13545874D01*
X10135901Y-13545874D02*
X10116853Y-13536350D01*
X10116853Y-13536350D02*
X10088282Y-13536350D01*
X10088282Y-13536350D02*
X10069234Y-13545874D01*
X10069234Y-13545874D02*
X10059711Y-13555398D01*
X10269234Y-13669684D02*
X10250187Y-13660160D01*
X10250187Y-13660160D02*
X10240663Y-13650636D01*
X10240663Y-13650636D02*
X10231139Y-13631588D01*
X10231139Y-13631588D02*
X10231139Y-13574446D01*
X10231139Y-13574446D02*
X10240663Y-13555398D01*
X10240663Y-13555398D02*
X10250187Y-13545874D01*
X10250187Y-13545874D02*
X10269234Y-13536350D01*
X10269234Y-13536350D02*
X10297806Y-13536350D01*
X10297806Y-13536350D02*
X10316853Y-13545874D01*
X10316853Y-13545874D02*
X10326377Y-13555398D01*
X10326377Y-13555398D02*
X10335901Y-13574446D01*
X10335901Y-13574446D02*
X10335901Y-13631588D01*
X10335901Y-13631588D02*
X10326377Y-13650636D01*
X10326377Y-13650636D02*
X10316853Y-13660160D01*
X10316853Y-13660160D02*
X10297806Y-13669684D01*
X10297806Y-13669684D02*
X10269234Y-13669684D01*
X10450187Y-13669684D02*
X10431139Y-13660160D01*
X10431139Y-13660160D02*
X10421615Y-13641112D01*
X10421615Y-13641112D02*
X10421615Y-13469684D01*
X10602568Y-13660160D02*
X10583520Y-13669684D01*
X10583520Y-13669684D02*
X10545425Y-13669684D01*
X10545425Y-13669684D02*
X10526377Y-13660160D01*
X10526377Y-13660160D02*
X10516853Y-13641112D01*
X10516853Y-13641112D02*
X10516853Y-13564922D01*
X10516853Y-13564922D02*
X10526377Y-13545874D01*
X10526377Y-13545874D02*
X10545425Y-13536350D01*
X10545425Y-13536350D02*
X10583520Y-13536350D01*
X10583520Y-13536350D02*
X10602568Y-13545874D01*
X10602568Y-13545874D02*
X10612092Y-13564922D01*
X10612092Y-13564922D02*
X10612092Y-13583969D01*
X10612092Y-13583969D02*
X10516853Y-13603017D01*
X10688282Y-13660160D02*
X10707330Y-13669684D01*
X10707330Y-13669684D02*
X10745425Y-13669684D01*
X10745425Y-13669684D02*
X10764473Y-13660160D01*
X10764473Y-13660160D02*
X10773996Y-13641112D01*
X10773996Y-13641112D02*
X10773996Y-13631588D01*
X10773996Y-13631588D02*
X10764473Y-13612541D01*
X10764473Y-13612541D02*
X10745425Y-13603017D01*
X10745425Y-13603017D02*
X10716853Y-13603017D01*
X10716853Y-13603017D02*
X10697806Y-13593493D01*
X10697806Y-13593493D02*
X10688282Y-13574446D01*
X10688282Y-13574446D02*
X10688282Y-13564922D01*
X10688282Y-13564922D02*
X10697806Y-13545874D01*
X10697806Y-13545874D02*
X10716853Y-13536350D01*
X10716853Y-13536350D02*
X10745425Y-13536350D01*
X10745425Y-13536350D02*
X10764473Y-13545874D01*
X10840663Y-13745874D02*
X10850187Y-13736350D01*
X10850187Y-13736350D02*
X10869234Y-13707779D01*
X10869234Y-13707779D02*
X10878758Y-13688731D01*
X10878758Y-13688731D02*
X10888282Y-13660160D01*
X10888282Y-13660160D02*
X10897806Y-13612541D01*
X10897806Y-13612541D02*
X10897806Y-13574446D01*
X10897806Y-13574446D02*
X10888282Y-13526827D01*
X10888282Y-13526827D02*
X10878758Y-13498255D01*
X10878758Y-13498255D02*
X10869234Y-13479208D01*
X10869234Y-13479208D02*
X10850187Y-13450636D01*
X10850187Y-13450636D02*
X10840663Y-13441112D01*
D10*
X6015600Y-13892200D02*
X6065600Y-13842200D01*
X6015600Y-13792200D01*
X5965600Y-13842200D01*
X6015600Y-13892200D01*
D11*
X6431139Y-13933684D02*
X6316853Y-13933684D01*
X6373996Y-13933684D02*
X6373996Y-13733684D01*
X6373996Y-13733684D02*
X6354948Y-13762255D01*
X6354948Y-13762255D02*
X6335901Y-13781303D01*
X6335901Y-13781303D02*
X6316853Y-13790827D01*
X6516853Y-13914636D02*
X6526377Y-13924160D01*
X6526377Y-13924160D02*
X6516853Y-13933684D01*
X6516853Y-13933684D02*
X6507329Y-13924160D01*
X6507329Y-13924160D02*
X6516853Y-13914636D01*
X6516853Y-13914636D02*
X6516853Y-13933684D01*
X6650186Y-13733684D02*
X6669234Y-13733684D01*
X6669234Y-13733684D02*
X6688282Y-13743208D01*
X6688282Y-13743208D02*
X6697805Y-13752731D01*
X6697805Y-13752731D02*
X6707329Y-13771779D01*
X6707329Y-13771779D02*
X6716853Y-13809874D01*
X6716853Y-13809874D02*
X6716853Y-13857493D01*
X6716853Y-13857493D02*
X6707329Y-13895588D01*
X6707329Y-13895588D02*
X6697805Y-13914636D01*
X6697805Y-13914636D02*
X6688282Y-13924160D01*
X6688282Y-13924160D02*
X6669234Y-13933684D01*
X6669234Y-13933684D02*
X6650186Y-13933684D01*
X6650186Y-13933684D02*
X6631139Y-13924160D01*
X6631139Y-13924160D02*
X6621615Y-13914636D01*
X6621615Y-13914636D02*
X6612091Y-13895588D01*
X6612091Y-13895588D02*
X6602567Y-13857493D01*
X6602567Y-13857493D02*
X6602567Y-13809874D01*
X6602567Y-13809874D02*
X6612091Y-13771779D01*
X6612091Y-13771779D02*
X6621615Y-13752731D01*
X6621615Y-13752731D02*
X6631139Y-13743208D01*
X6631139Y-13743208D02*
X6650186Y-13733684D01*
X6840662Y-13733684D02*
X6859710Y-13733684D01*
X6859710Y-13733684D02*
X6878758Y-13743208D01*
X6878758Y-13743208D02*
X6888282Y-13752731D01*
X6888282Y-13752731D02*
X6897805Y-13771779D01*
X6897805Y-13771779D02*
X6907329Y-13809874D01*
X6907329Y-13809874D02*
X6907329Y-13857493D01*
X6907329Y-13857493D02*
X6897805Y-13895588D01*
X6897805Y-13895588D02*
X6888282Y-13914636D01*
X6888282Y-13914636D02*
X6878758Y-13924160D01*
X6878758Y-13924160D02*
X6859710Y-13933684D01*
X6859710Y-13933684D02*
X6840662Y-13933684D01*
X6840662Y-13933684D02*
X6821615Y-13924160D01*
X6821615Y-13924160D02*
X6812091Y-13914636D01*
X6812091Y-13914636D02*
X6802567Y-13895588D01*
X6802567Y-13895588D02*
X6793043Y-13857493D01*
X6793043Y-13857493D02*
X6793043Y-13809874D01*
X6793043Y-13809874D02*
X6802567Y-13771779D01*
X6802567Y-13771779D02*
X6812091Y-13752731D01*
X6812091Y-13752731D02*
X6821615Y-13743208D01*
X6821615Y-13743208D02*
X6840662Y-13733684D01*
X7031139Y-13733684D02*
X7050186Y-13733684D01*
X7050186Y-13733684D02*
X7069234Y-13743208D01*
X7069234Y-13743208D02*
X7078758Y-13752731D01*
X7078758Y-13752731D02*
X7088282Y-13771779D01*
X7088282Y-13771779D02*
X7097805Y-13809874D01*
X7097805Y-13809874D02*
X7097805Y-13857493D01*
X7097805Y-13857493D02*
X7088282Y-13895588D01*
X7088282Y-13895588D02*
X7078758Y-13914636D01*
X7078758Y-13914636D02*
X7069234Y-13924160D01*
X7069234Y-13924160D02*
X7050186Y-13933684D01*
X7050186Y-13933684D02*
X7031139Y-13933684D01*
X7031139Y-13933684D02*
X7012091Y-13924160D01*
X7012091Y-13924160D02*
X7002567Y-13914636D01*
X7002567Y-13914636D02*
X6993043Y-13895588D01*
X6993043Y-13895588D02*
X6983520Y-13857493D01*
X6983520Y-13857493D02*
X6983520Y-13809874D01*
X6983520Y-13809874D02*
X6993043Y-13771779D01*
X6993043Y-13771779D02*
X7002567Y-13752731D01*
X7002567Y-13752731D02*
X7012091Y-13743208D01*
X7012091Y-13743208D02*
X7031139Y-13733684D01*
X7183520Y-13933684D02*
X7183520Y-13800350D01*
X7183520Y-13819398D02*
X7193043Y-13809874D01*
X7193043Y-13809874D02*
X7212091Y-13800350D01*
X7212091Y-13800350D02*
X7240663Y-13800350D01*
X7240663Y-13800350D02*
X7259710Y-13809874D01*
X7259710Y-13809874D02*
X7269234Y-13828922D01*
X7269234Y-13828922D02*
X7269234Y-13933684D01*
X7269234Y-13828922D02*
X7278758Y-13809874D01*
X7278758Y-13809874D02*
X7297805Y-13800350D01*
X7297805Y-13800350D02*
X7326377Y-13800350D01*
X7326377Y-13800350D02*
X7345424Y-13809874D01*
X7345424Y-13809874D02*
X7354948Y-13828922D01*
X7354948Y-13828922D02*
X7354948Y-13933684D01*
X7450186Y-13933684D02*
X7450186Y-13800350D01*
X7450186Y-13819398D02*
X7459710Y-13809874D01*
X7459710Y-13809874D02*
X7478758Y-13800350D01*
X7478758Y-13800350D02*
X7507329Y-13800350D01*
X7507329Y-13800350D02*
X7526377Y-13809874D01*
X7526377Y-13809874D02*
X7535901Y-13828922D01*
X7535901Y-13828922D02*
X7535901Y-13933684D01*
X7535901Y-13828922D02*
X7545424Y-13809874D01*
X7545424Y-13809874D02*
X7564472Y-13800350D01*
X7564472Y-13800350D02*
X7593043Y-13800350D01*
X7593043Y-13800350D02*
X7612091Y-13809874D01*
X7612091Y-13809874D02*
X7621615Y-13828922D01*
X7621615Y-13828922D02*
X7621615Y-13933684D01*
X8012091Y-13724160D02*
X7840663Y-13981303D01*
X8269234Y-13733684D02*
X8288282Y-13733684D01*
X8288282Y-13733684D02*
X8307329Y-13743208D01*
X8307329Y-13743208D02*
X8316853Y-13752731D01*
X8316853Y-13752731D02*
X8326377Y-13771779D01*
X8326377Y-13771779D02*
X8335901Y-13809874D01*
X8335901Y-13809874D02*
X8335901Y-13857493D01*
X8335901Y-13857493D02*
X8326377Y-13895588D01*
X8326377Y-13895588D02*
X8316853Y-13914636D01*
X8316853Y-13914636D02*
X8307329Y-13924160D01*
X8307329Y-13924160D02*
X8288282Y-13933684D01*
X8288282Y-13933684D02*
X8269234Y-13933684D01*
X8269234Y-13933684D02*
X8250186Y-13924160D01*
X8250186Y-13924160D02*
X8240663Y-13914636D01*
X8240663Y-13914636D02*
X8231139Y-13895588D01*
X8231139Y-13895588D02*
X8221615Y-13857493D01*
X8221615Y-13857493D02*
X8221615Y-13809874D01*
X8221615Y-13809874D02*
X8231139Y-13771779D01*
X8231139Y-13771779D02*
X8240663Y-13752731D01*
X8240663Y-13752731D02*
X8250186Y-13743208D01*
X8250186Y-13743208D02*
X8269234Y-13733684D01*
X8421615Y-13914636D02*
X8431139Y-13924160D01*
X8431139Y-13924160D02*
X8421615Y-13933684D01*
X8421615Y-13933684D02*
X8412091Y-13924160D01*
X8412091Y-13924160D02*
X8421615Y-13914636D01*
X8421615Y-13914636D02*
X8421615Y-13933684D01*
X8554948Y-13733684D02*
X8573996Y-13733684D01*
X8573996Y-13733684D02*
X8593044Y-13743208D01*
X8593044Y-13743208D02*
X8602568Y-13752731D01*
X8602568Y-13752731D02*
X8612091Y-13771779D01*
X8612091Y-13771779D02*
X8621615Y-13809874D01*
X8621615Y-13809874D02*
X8621615Y-13857493D01*
X8621615Y-13857493D02*
X8612091Y-13895588D01*
X8612091Y-13895588D02*
X8602568Y-13914636D01*
X8602568Y-13914636D02*
X8593044Y-13924160D01*
X8593044Y-13924160D02*
X8573996Y-13933684D01*
X8573996Y-13933684D02*
X8554948Y-13933684D01*
X8554948Y-13933684D02*
X8535901Y-13924160D01*
X8535901Y-13924160D02*
X8526377Y-13914636D01*
X8526377Y-13914636D02*
X8516853Y-13895588D01*
X8516853Y-13895588D02*
X8507329Y-13857493D01*
X8507329Y-13857493D02*
X8507329Y-13809874D01*
X8507329Y-13809874D02*
X8516853Y-13771779D01*
X8516853Y-13771779D02*
X8526377Y-13752731D01*
X8526377Y-13752731D02*
X8535901Y-13743208D01*
X8535901Y-13743208D02*
X8554948Y-13733684D01*
X8688282Y-13733684D02*
X8812091Y-13733684D01*
X8812091Y-13733684D02*
X8745425Y-13809874D01*
X8745425Y-13809874D02*
X8773996Y-13809874D01*
X8773996Y-13809874D02*
X8793044Y-13819398D01*
X8793044Y-13819398D02*
X8802568Y-13828922D01*
X8802568Y-13828922D02*
X8812091Y-13847969D01*
X8812091Y-13847969D02*
X8812091Y-13895588D01*
X8812091Y-13895588D02*
X8802568Y-13914636D01*
X8802568Y-13914636D02*
X8793044Y-13924160D01*
X8793044Y-13924160D02*
X8773996Y-13933684D01*
X8773996Y-13933684D02*
X8716853Y-13933684D01*
X8716853Y-13933684D02*
X8697806Y-13924160D01*
X8697806Y-13924160D02*
X8688282Y-13914636D01*
X8907329Y-13933684D02*
X8945425Y-13933684D01*
X8945425Y-13933684D02*
X8964472Y-13924160D01*
X8964472Y-13924160D02*
X8973996Y-13914636D01*
X8973996Y-13914636D02*
X8993044Y-13886065D01*
X8993044Y-13886065D02*
X9002568Y-13847969D01*
X9002568Y-13847969D02*
X9002568Y-13771779D01*
X9002568Y-13771779D02*
X8993044Y-13752731D01*
X8993044Y-13752731D02*
X8983520Y-13743208D01*
X8983520Y-13743208D02*
X8964472Y-13733684D01*
X8964472Y-13733684D02*
X8926377Y-13733684D01*
X8926377Y-13733684D02*
X8907329Y-13743208D01*
X8907329Y-13743208D02*
X8897806Y-13752731D01*
X8897806Y-13752731D02*
X8888282Y-13771779D01*
X8888282Y-13771779D02*
X8888282Y-13819398D01*
X8888282Y-13819398D02*
X8897806Y-13838446D01*
X8897806Y-13838446D02*
X8907329Y-13847969D01*
X8907329Y-13847969D02*
X8926377Y-13857493D01*
X8926377Y-13857493D02*
X8964472Y-13857493D01*
X8964472Y-13857493D02*
X8983520Y-13847969D01*
X8983520Y-13847969D02*
X8993044Y-13838446D01*
X8993044Y-13838446D02*
X9002568Y-13819398D01*
X9173996Y-13800350D02*
X9173996Y-13933684D01*
X9126377Y-13724160D02*
X9078758Y-13867017D01*
X9078758Y-13867017D02*
X9202568Y-13867017D01*
X9269234Y-13733684D02*
X9269234Y-13771779D01*
X9345425Y-13733684D02*
X9345425Y-13771779D01*
X9640663Y-14009874D02*
X9631139Y-14000350D01*
X9631139Y-14000350D02*
X9612091Y-13971779D01*
X9612091Y-13971779D02*
X9602568Y-13952731D01*
X9602568Y-13952731D02*
X9593044Y-13924160D01*
X9593044Y-13924160D02*
X9583520Y-13876541D01*
X9583520Y-13876541D02*
X9583520Y-13838446D01*
X9583520Y-13838446D02*
X9593044Y-13790827D01*
X9593044Y-13790827D02*
X9602568Y-13762255D01*
X9602568Y-13762255D02*
X9612091Y-13743208D01*
X9612091Y-13743208D02*
X9631139Y-13714636D01*
X9631139Y-13714636D02*
X9640663Y-13705112D01*
X9726377Y-13933684D02*
X9764472Y-13933684D01*
X9764472Y-13933684D02*
X9783520Y-13924160D01*
X9783520Y-13924160D02*
X9793044Y-13914636D01*
X9793044Y-13914636D02*
X9812091Y-13886065D01*
X9812091Y-13886065D02*
X9821615Y-13847969D01*
X9821615Y-13847969D02*
X9821615Y-13771779D01*
X9821615Y-13771779D02*
X9812091Y-13752731D01*
X9812091Y-13752731D02*
X9802568Y-13743208D01*
X9802568Y-13743208D02*
X9783520Y-13733684D01*
X9783520Y-13733684D02*
X9745425Y-13733684D01*
X9745425Y-13733684D02*
X9726377Y-13743208D01*
X9726377Y-13743208D02*
X9716853Y-13752731D01*
X9716853Y-13752731D02*
X9707330Y-13771779D01*
X9707330Y-13771779D02*
X9707330Y-13819398D01*
X9707330Y-13819398D02*
X9716853Y-13838446D01*
X9716853Y-13838446D02*
X9726377Y-13847969D01*
X9726377Y-13847969D02*
X9745425Y-13857493D01*
X9745425Y-13857493D02*
X9783520Y-13857493D01*
X9783520Y-13857493D02*
X9802568Y-13847969D01*
X9802568Y-13847969D02*
X9812091Y-13838446D01*
X9812091Y-13838446D02*
X9821615Y-13819398D01*
X10059711Y-13933684D02*
X10059711Y-13733684D01*
X10145425Y-13933684D02*
X10145425Y-13828922D01*
X10145425Y-13828922D02*
X10135901Y-13809874D01*
X10135901Y-13809874D02*
X10116853Y-13800350D01*
X10116853Y-13800350D02*
X10088282Y-13800350D01*
X10088282Y-13800350D02*
X10069234Y-13809874D01*
X10069234Y-13809874D02*
X10059711Y-13819398D01*
X10269234Y-13933684D02*
X10250187Y-13924160D01*
X10250187Y-13924160D02*
X10240663Y-13914636D01*
X10240663Y-13914636D02*
X10231139Y-13895588D01*
X10231139Y-13895588D02*
X10231139Y-13838446D01*
X10231139Y-13838446D02*
X10240663Y-13819398D01*
X10240663Y-13819398D02*
X10250187Y-13809874D01*
X10250187Y-13809874D02*
X10269234Y-13800350D01*
X10269234Y-13800350D02*
X10297806Y-13800350D01*
X10297806Y-13800350D02*
X10316853Y-13809874D01*
X10316853Y-13809874D02*
X10326377Y-13819398D01*
X10326377Y-13819398D02*
X10335901Y-13838446D01*
X10335901Y-13838446D02*
X10335901Y-13895588D01*
X10335901Y-13895588D02*
X10326377Y-13914636D01*
X10326377Y-13914636D02*
X10316853Y-13924160D01*
X10316853Y-13924160D02*
X10297806Y-13933684D01*
X10297806Y-13933684D02*
X10269234Y-13933684D01*
X10450187Y-13933684D02*
X10431139Y-13924160D01*
X10431139Y-13924160D02*
X10421615Y-13905112D01*
X10421615Y-13905112D02*
X10421615Y-13733684D01*
X10602568Y-13924160D02*
X10583520Y-13933684D01*
X10583520Y-13933684D02*
X10545425Y-13933684D01*
X10545425Y-13933684D02*
X10526377Y-13924160D01*
X10526377Y-13924160D02*
X10516853Y-13905112D01*
X10516853Y-13905112D02*
X10516853Y-13828922D01*
X10516853Y-13828922D02*
X10526377Y-13809874D01*
X10526377Y-13809874D02*
X10545425Y-13800350D01*
X10545425Y-13800350D02*
X10583520Y-13800350D01*
X10583520Y-13800350D02*
X10602568Y-13809874D01*
X10602568Y-13809874D02*
X10612092Y-13828922D01*
X10612092Y-13828922D02*
X10612092Y-13847969D01*
X10612092Y-13847969D02*
X10516853Y-13867017D01*
X10688282Y-13924160D02*
X10707330Y-13933684D01*
X10707330Y-13933684D02*
X10745425Y-13933684D01*
X10745425Y-13933684D02*
X10764473Y-13924160D01*
X10764473Y-13924160D02*
X10773996Y-13905112D01*
X10773996Y-13905112D02*
X10773996Y-13895588D01*
X10773996Y-13895588D02*
X10764473Y-13876541D01*
X10764473Y-13876541D02*
X10745425Y-13867017D01*
X10745425Y-13867017D02*
X10716853Y-13867017D01*
X10716853Y-13867017D02*
X10697806Y-13857493D01*
X10697806Y-13857493D02*
X10688282Y-13838446D01*
X10688282Y-13838446D02*
X10688282Y-13828922D01*
X10688282Y-13828922D02*
X10697806Y-13809874D01*
X10697806Y-13809874D02*
X10716853Y-13800350D01*
X10716853Y-13800350D02*
X10745425Y-13800350D01*
X10745425Y-13800350D02*
X10764473Y-13809874D01*
X11012092Y-13857493D02*
X11164473Y-13857493D01*
X11088282Y-13933684D02*
X11088282Y-13781303D01*
X11393044Y-13733684D02*
X11516853Y-13733684D01*
X11516853Y-13733684D02*
X11450187Y-13809874D01*
X11450187Y-13809874D02*
X11478758Y-13809874D01*
X11478758Y-13809874D02*
X11497806Y-13819398D01*
X11497806Y-13819398D02*
X11507330Y-13828922D01*
X11507330Y-13828922D02*
X11516853Y-13847969D01*
X11516853Y-13847969D02*
X11516853Y-13895588D01*
X11516853Y-13895588D02*
X11507330Y-13914636D01*
X11507330Y-13914636D02*
X11497806Y-13924160D01*
X11497806Y-13924160D02*
X11478758Y-13933684D01*
X11478758Y-13933684D02*
X11421615Y-13933684D01*
X11421615Y-13933684D02*
X11402568Y-13924160D01*
X11402568Y-13924160D02*
X11393044Y-13914636D01*
X11745425Y-13924160D02*
X11764473Y-13933684D01*
X11764473Y-13933684D02*
X11802568Y-13933684D01*
X11802568Y-13933684D02*
X11821615Y-13924160D01*
X11821615Y-13924160D02*
X11831139Y-13905112D01*
X11831139Y-13905112D02*
X11831139Y-13895588D01*
X11831139Y-13895588D02*
X11821615Y-13876541D01*
X11821615Y-13876541D02*
X11802568Y-13867017D01*
X11802568Y-13867017D02*
X11773996Y-13867017D01*
X11773996Y-13867017D02*
X11754949Y-13857493D01*
X11754949Y-13857493D02*
X11745425Y-13838446D01*
X11745425Y-13838446D02*
X11745425Y-13828922D01*
X11745425Y-13828922D02*
X11754949Y-13809874D01*
X11754949Y-13809874D02*
X11773996Y-13800350D01*
X11773996Y-13800350D02*
X11802568Y-13800350D01*
X11802568Y-13800350D02*
X11821615Y-13809874D01*
X11945425Y-13933684D02*
X11926377Y-13924160D01*
X11926377Y-13924160D02*
X11916854Y-13905112D01*
X11916854Y-13905112D02*
X11916854Y-13733684D01*
X12050187Y-13933684D02*
X12031139Y-13924160D01*
X12031139Y-13924160D02*
X12021615Y-13914636D01*
X12021615Y-13914636D02*
X12012092Y-13895588D01*
X12012092Y-13895588D02*
X12012092Y-13838446D01*
X12012092Y-13838446D02*
X12021615Y-13819398D01*
X12021615Y-13819398D02*
X12031139Y-13809874D01*
X12031139Y-13809874D02*
X12050187Y-13800350D01*
X12050187Y-13800350D02*
X12078758Y-13800350D01*
X12078758Y-13800350D02*
X12097806Y-13809874D01*
X12097806Y-13809874D02*
X12107330Y-13819398D01*
X12107330Y-13819398D02*
X12116854Y-13838446D01*
X12116854Y-13838446D02*
X12116854Y-13895588D01*
X12116854Y-13895588D02*
X12107330Y-13914636D01*
X12107330Y-13914636D02*
X12097806Y-13924160D01*
X12097806Y-13924160D02*
X12078758Y-13933684D01*
X12078758Y-13933684D02*
X12050187Y-13933684D01*
X12173996Y-13800350D02*
X12250187Y-13800350D01*
X12202568Y-13733684D02*
X12202568Y-13905112D01*
X12202568Y-13905112D02*
X12212092Y-13924160D01*
X12212092Y-13924160D02*
X12231139Y-13933684D01*
X12231139Y-13933684D02*
X12250187Y-13933684D01*
X12307330Y-13924160D02*
X12326377Y-13933684D01*
X12326377Y-13933684D02*
X12364473Y-13933684D01*
X12364473Y-13933684D02*
X12383520Y-13924160D01*
X12383520Y-13924160D02*
X12393044Y-13905112D01*
X12393044Y-13905112D02*
X12393044Y-13895588D01*
X12393044Y-13895588D02*
X12383520Y-13876541D01*
X12383520Y-13876541D02*
X12364473Y-13867017D01*
X12364473Y-13867017D02*
X12335901Y-13867017D01*
X12335901Y-13867017D02*
X12316854Y-13857493D01*
X12316854Y-13857493D02*
X12307330Y-13838446D01*
X12307330Y-13838446D02*
X12307330Y-13828922D01*
X12307330Y-13828922D02*
X12316854Y-13809874D01*
X12316854Y-13809874D02*
X12335901Y-13800350D01*
X12335901Y-13800350D02*
X12364473Y-13800350D01*
X12364473Y-13800350D02*
X12383520Y-13809874D01*
X12459711Y-14009874D02*
X12469235Y-14000350D01*
X12469235Y-14000350D02*
X12488282Y-13971779D01*
X12488282Y-13971779D02*
X12497806Y-13952731D01*
X12497806Y-13952731D02*
X12507330Y-13924160D01*
X12507330Y-13924160D02*
X12516854Y-13876541D01*
X12516854Y-13876541D02*
X12516854Y-13838446D01*
X12516854Y-13838446D02*
X12507330Y-13790827D01*
X12507330Y-13790827D02*
X12497806Y-13762255D01*
X12497806Y-13762255D02*
X12488282Y-13743208D01*
X12488282Y-13743208D02*
X12469235Y-13714636D01*
X12469235Y-13714636D02*
X12459711Y-13705112D01*
D16*
X5963600Y-14055200D02*
X6065600Y-14157200D01*
X6065600Y-14055200D02*
X5963600Y-14157200D01*
X6065600Y-14106200D02*
G75*
G03*
X6065600Y-14106200I-51000J0D01*
G01*
D11*
X6431139Y-14197684D02*
X6316853Y-14197684D01*
X6373996Y-14197684D02*
X6373996Y-13997684D01*
X6373996Y-13997684D02*
X6354948Y-14026255D01*
X6354948Y-14026255D02*
X6335901Y-14045303D01*
X6335901Y-14045303D02*
X6316853Y-14054827D01*
X6516853Y-14178636D02*
X6526377Y-14188160D01*
X6526377Y-14188160D02*
X6516853Y-14197684D01*
X6516853Y-14197684D02*
X6507329Y-14188160D01*
X6507329Y-14188160D02*
X6516853Y-14178636D01*
X6516853Y-14178636D02*
X6516853Y-14197684D01*
X6650186Y-13997684D02*
X6669234Y-13997684D01*
X6669234Y-13997684D02*
X6688282Y-14007208D01*
X6688282Y-14007208D02*
X6697805Y-14016731D01*
X6697805Y-14016731D02*
X6707329Y-14035779D01*
X6707329Y-14035779D02*
X6716853Y-14073874D01*
X6716853Y-14073874D02*
X6716853Y-14121493D01*
X6716853Y-14121493D02*
X6707329Y-14159588D01*
X6707329Y-14159588D02*
X6697805Y-14178636D01*
X6697805Y-14178636D02*
X6688282Y-14188160D01*
X6688282Y-14188160D02*
X6669234Y-14197684D01*
X6669234Y-14197684D02*
X6650186Y-14197684D01*
X6650186Y-14197684D02*
X6631139Y-14188160D01*
X6631139Y-14188160D02*
X6621615Y-14178636D01*
X6621615Y-14178636D02*
X6612091Y-14159588D01*
X6612091Y-14159588D02*
X6602567Y-14121493D01*
X6602567Y-14121493D02*
X6602567Y-14073874D01*
X6602567Y-14073874D02*
X6612091Y-14035779D01*
X6612091Y-14035779D02*
X6621615Y-14016731D01*
X6621615Y-14016731D02*
X6631139Y-14007208D01*
X6631139Y-14007208D02*
X6650186Y-13997684D01*
X6793043Y-14016731D02*
X6802567Y-14007208D01*
X6802567Y-14007208D02*
X6821615Y-13997684D01*
X6821615Y-13997684D02*
X6869234Y-13997684D01*
X6869234Y-13997684D02*
X6888282Y-14007208D01*
X6888282Y-14007208D02*
X6897805Y-14016731D01*
X6897805Y-14016731D02*
X6907329Y-14035779D01*
X6907329Y-14035779D02*
X6907329Y-14054827D01*
X6907329Y-14054827D02*
X6897805Y-14083398D01*
X6897805Y-14083398D02*
X6783520Y-14197684D01*
X6783520Y-14197684D02*
X6907329Y-14197684D01*
X7031139Y-13997684D02*
X7050186Y-13997684D01*
X7050186Y-13997684D02*
X7069234Y-14007208D01*
X7069234Y-14007208D02*
X7078758Y-14016731D01*
X7078758Y-14016731D02*
X7088282Y-14035779D01*
X7088282Y-14035779D02*
X7097805Y-14073874D01*
X7097805Y-14073874D02*
X7097805Y-14121493D01*
X7097805Y-14121493D02*
X7088282Y-14159588D01*
X7088282Y-14159588D02*
X7078758Y-14178636D01*
X7078758Y-14178636D02*
X7069234Y-14188160D01*
X7069234Y-14188160D02*
X7050186Y-14197684D01*
X7050186Y-14197684D02*
X7031139Y-14197684D01*
X7031139Y-14197684D02*
X7012091Y-14188160D01*
X7012091Y-14188160D02*
X7002567Y-14178636D01*
X7002567Y-14178636D02*
X6993043Y-14159588D01*
X6993043Y-14159588D02*
X6983520Y-14121493D01*
X6983520Y-14121493D02*
X6983520Y-14073874D01*
X6983520Y-14073874D02*
X6993043Y-14035779D01*
X6993043Y-14035779D02*
X7002567Y-14016731D01*
X7002567Y-14016731D02*
X7012091Y-14007208D01*
X7012091Y-14007208D02*
X7031139Y-13997684D01*
X7183520Y-14197684D02*
X7183520Y-14064350D01*
X7183520Y-14083398D02*
X7193043Y-14073874D01*
X7193043Y-14073874D02*
X7212091Y-14064350D01*
X7212091Y-14064350D02*
X7240663Y-14064350D01*
X7240663Y-14064350D02*
X7259710Y-14073874D01*
X7259710Y-14073874D02*
X7269234Y-14092922D01*
X7269234Y-14092922D02*
X7269234Y-14197684D01*
X7269234Y-14092922D02*
X7278758Y-14073874D01*
X7278758Y-14073874D02*
X7297805Y-14064350D01*
X7297805Y-14064350D02*
X7326377Y-14064350D01*
X7326377Y-14064350D02*
X7345424Y-14073874D01*
X7345424Y-14073874D02*
X7354948Y-14092922D01*
X7354948Y-14092922D02*
X7354948Y-14197684D01*
X7450186Y-14197684D02*
X7450186Y-14064350D01*
X7450186Y-14083398D02*
X7459710Y-14073874D01*
X7459710Y-14073874D02*
X7478758Y-14064350D01*
X7478758Y-14064350D02*
X7507329Y-14064350D01*
X7507329Y-14064350D02*
X7526377Y-14073874D01*
X7526377Y-14073874D02*
X7535901Y-14092922D01*
X7535901Y-14092922D02*
X7535901Y-14197684D01*
X7535901Y-14092922D02*
X7545424Y-14073874D01*
X7545424Y-14073874D02*
X7564472Y-14064350D01*
X7564472Y-14064350D02*
X7593043Y-14064350D01*
X7593043Y-14064350D02*
X7612091Y-14073874D01*
X7612091Y-14073874D02*
X7621615Y-14092922D01*
X7621615Y-14092922D02*
X7621615Y-14197684D01*
X8012091Y-13988160D02*
X7840663Y-14245303D01*
X8269234Y-13997684D02*
X8288282Y-13997684D01*
X8288282Y-13997684D02*
X8307329Y-14007208D01*
X8307329Y-14007208D02*
X8316853Y-14016731D01*
X8316853Y-14016731D02*
X8326377Y-14035779D01*
X8326377Y-14035779D02*
X8335901Y-14073874D01*
X8335901Y-14073874D02*
X8335901Y-14121493D01*
X8335901Y-14121493D02*
X8326377Y-14159588D01*
X8326377Y-14159588D02*
X8316853Y-14178636D01*
X8316853Y-14178636D02*
X8307329Y-14188160D01*
X8307329Y-14188160D02*
X8288282Y-14197684D01*
X8288282Y-14197684D02*
X8269234Y-14197684D01*
X8269234Y-14197684D02*
X8250186Y-14188160D01*
X8250186Y-14188160D02*
X8240663Y-14178636D01*
X8240663Y-14178636D02*
X8231139Y-14159588D01*
X8231139Y-14159588D02*
X8221615Y-14121493D01*
X8221615Y-14121493D02*
X8221615Y-14073874D01*
X8221615Y-14073874D02*
X8231139Y-14035779D01*
X8231139Y-14035779D02*
X8240663Y-14016731D01*
X8240663Y-14016731D02*
X8250186Y-14007208D01*
X8250186Y-14007208D02*
X8269234Y-13997684D01*
X8421615Y-14178636D02*
X8431139Y-14188160D01*
X8431139Y-14188160D02*
X8421615Y-14197684D01*
X8421615Y-14197684D02*
X8412091Y-14188160D01*
X8412091Y-14188160D02*
X8421615Y-14178636D01*
X8421615Y-14178636D02*
X8421615Y-14197684D01*
X8554948Y-13997684D02*
X8573996Y-13997684D01*
X8573996Y-13997684D02*
X8593044Y-14007208D01*
X8593044Y-14007208D02*
X8602568Y-14016731D01*
X8602568Y-14016731D02*
X8612091Y-14035779D01*
X8612091Y-14035779D02*
X8621615Y-14073874D01*
X8621615Y-14073874D02*
X8621615Y-14121493D01*
X8621615Y-14121493D02*
X8612091Y-14159588D01*
X8612091Y-14159588D02*
X8602568Y-14178636D01*
X8602568Y-14178636D02*
X8593044Y-14188160D01*
X8593044Y-14188160D02*
X8573996Y-14197684D01*
X8573996Y-14197684D02*
X8554948Y-14197684D01*
X8554948Y-14197684D02*
X8535901Y-14188160D01*
X8535901Y-14188160D02*
X8526377Y-14178636D01*
X8526377Y-14178636D02*
X8516853Y-14159588D01*
X8516853Y-14159588D02*
X8507329Y-14121493D01*
X8507329Y-14121493D02*
X8507329Y-14073874D01*
X8507329Y-14073874D02*
X8516853Y-14035779D01*
X8516853Y-14035779D02*
X8526377Y-14016731D01*
X8526377Y-14016731D02*
X8535901Y-14007208D01*
X8535901Y-14007208D02*
X8554948Y-13997684D01*
X8793044Y-14064350D02*
X8793044Y-14197684D01*
X8745425Y-13988160D02*
X8697806Y-14131017D01*
X8697806Y-14131017D02*
X8821615Y-14131017D01*
X8935901Y-13997684D02*
X8954949Y-13997684D01*
X8954949Y-13997684D02*
X8973996Y-14007208D01*
X8973996Y-14007208D02*
X8983520Y-14016731D01*
X8983520Y-14016731D02*
X8993044Y-14035779D01*
X8993044Y-14035779D02*
X9002568Y-14073874D01*
X9002568Y-14073874D02*
X9002568Y-14121493D01*
X9002568Y-14121493D02*
X8993044Y-14159588D01*
X8993044Y-14159588D02*
X8983520Y-14178636D01*
X8983520Y-14178636D02*
X8973996Y-14188160D01*
X8973996Y-14188160D02*
X8954949Y-14197684D01*
X8954949Y-14197684D02*
X8935901Y-14197684D01*
X8935901Y-14197684D02*
X8916853Y-14188160D01*
X8916853Y-14188160D02*
X8907329Y-14178636D01*
X8907329Y-14178636D02*
X8897806Y-14159588D01*
X8897806Y-14159588D02*
X8888282Y-14121493D01*
X8888282Y-14121493D02*
X8888282Y-14073874D01*
X8888282Y-14073874D02*
X8897806Y-14035779D01*
X8897806Y-14035779D02*
X8907329Y-14016731D01*
X8907329Y-14016731D02*
X8916853Y-14007208D01*
X8916853Y-14007208D02*
X8935901Y-13997684D01*
X9078758Y-14016731D02*
X9088282Y-14007208D01*
X9088282Y-14007208D02*
X9107329Y-13997684D01*
X9107329Y-13997684D02*
X9154949Y-13997684D01*
X9154949Y-13997684D02*
X9173996Y-14007208D01*
X9173996Y-14007208D02*
X9183520Y-14016731D01*
X9183520Y-14016731D02*
X9193044Y-14035779D01*
X9193044Y-14035779D02*
X9193044Y-14054827D01*
X9193044Y-14054827D02*
X9183520Y-14083398D01*
X9183520Y-14083398D02*
X9069234Y-14197684D01*
X9069234Y-14197684D02*
X9193044Y-14197684D01*
X9269234Y-13997684D02*
X9269234Y-14035779D01*
X9345425Y-13997684D02*
X9345425Y-14035779D01*
X9640663Y-14273874D02*
X9631139Y-14264350D01*
X9631139Y-14264350D02*
X9612091Y-14235779D01*
X9612091Y-14235779D02*
X9602568Y-14216731D01*
X9602568Y-14216731D02*
X9593044Y-14188160D01*
X9593044Y-14188160D02*
X9583520Y-14140541D01*
X9583520Y-14140541D02*
X9583520Y-14102446D01*
X9583520Y-14102446D02*
X9593044Y-14054827D01*
X9593044Y-14054827D02*
X9602568Y-14026255D01*
X9602568Y-14026255D02*
X9612091Y-14007208D01*
X9612091Y-14007208D02*
X9631139Y-13978636D01*
X9631139Y-13978636D02*
X9640663Y-13969112D01*
X9697806Y-13997684D02*
X9821615Y-13997684D01*
X9821615Y-13997684D02*
X9754949Y-14073874D01*
X9754949Y-14073874D02*
X9783520Y-14073874D01*
X9783520Y-14073874D02*
X9802568Y-14083398D01*
X9802568Y-14083398D02*
X9812091Y-14092922D01*
X9812091Y-14092922D02*
X9821615Y-14111969D01*
X9821615Y-14111969D02*
X9821615Y-14159588D01*
X9821615Y-14159588D02*
X9812091Y-14178636D01*
X9812091Y-14178636D02*
X9802568Y-14188160D01*
X9802568Y-14188160D02*
X9783520Y-14197684D01*
X9783520Y-14197684D02*
X9726377Y-14197684D01*
X9726377Y-14197684D02*
X9707330Y-14188160D01*
X9707330Y-14188160D02*
X9697806Y-14178636D01*
X9945425Y-13997684D02*
X9964472Y-13997684D01*
X9964472Y-13997684D02*
X9983520Y-14007208D01*
X9983520Y-14007208D02*
X9993044Y-14016731D01*
X9993044Y-14016731D02*
X10002568Y-14035779D01*
X10002568Y-14035779D02*
X10012091Y-14073874D01*
X10012091Y-14073874D02*
X10012091Y-14121493D01*
X10012091Y-14121493D02*
X10002568Y-14159588D01*
X10002568Y-14159588D02*
X9993044Y-14178636D01*
X9993044Y-14178636D02*
X9983520Y-14188160D01*
X9983520Y-14188160D02*
X9964472Y-14197684D01*
X9964472Y-14197684D02*
X9945425Y-14197684D01*
X9945425Y-14197684D02*
X9926377Y-14188160D01*
X9926377Y-14188160D02*
X9916853Y-14178636D01*
X9916853Y-14178636D02*
X9907330Y-14159588D01*
X9907330Y-14159588D02*
X9897806Y-14121493D01*
X9897806Y-14121493D02*
X9897806Y-14073874D01*
X9897806Y-14073874D02*
X9907330Y-14035779D01*
X9907330Y-14035779D02*
X9916853Y-14016731D01*
X9916853Y-14016731D02*
X9926377Y-14007208D01*
X9926377Y-14007208D02*
X9945425Y-13997684D01*
X10250187Y-14197684D02*
X10250187Y-13997684D01*
X10335901Y-14197684D02*
X10335901Y-14092922D01*
X10335901Y-14092922D02*
X10326377Y-14073874D01*
X10326377Y-14073874D02*
X10307330Y-14064350D01*
X10307330Y-14064350D02*
X10278758Y-14064350D01*
X10278758Y-14064350D02*
X10259711Y-14073874D01*
X10259711Y-14073874D02*
X10250187Y-14083398D01*
X10459711Y-14197684D02*
X10440663Y-14188160D01*
X10440663Y-14188160D02*
X10431139Y-14178636D01*
X10431139Y-14178636D02*
X10421615Y-14159588D01*
X10421615Y-14159588D02*
X10421615Y-14102446D01*
X10421615Y-14102446D02*
X10431139Y-14083398D01*
X10431139Y-14083398D02*
X10440663Y-14073874D01*
X10440663Y-14073874D02*
X10459711Y-14064350D01*
X10459711Y-14064350D02*
X10488282Y-14064350D01*
X10488282Y-14064350D02*
X10507330Y-14073874D01*
X10507330Y-14073874D02*
X10516853Y-14083398D01*
X10516853Y-14083398D02*
X10526377Y-14102446D01*
X10526377Y-14102446D02*
X10526377Y-14159588D01*
X10526377Y-14159588D02*
X10516853Y-14178636D01*
X10516853Y-14178636D02*
X10507330Y-14188160D01*
X10507330Y-14188160D02*
X10488282Y-14197684D01*
X10488282Y-14197684D02*
X10459711Y-14197684D01*
X10640663Y-14197684D02*
X10621615Y-14188160D01*
X10621615Y-14188160D02*
X10612092Y-14169112D01*
X10612092Y-14169112D02*
X10612092Y-13997684D01*
X10793044Y-14188160D02*
X10773996Y-14197684D01*
X10773996Y-14197684D02*
X10735901Y-14197684D01*
X10735901Y-14197684D02*
X10716853Y-14188160D01*
X10716853Y-14188160D02*
X10707330Y-14169112D01*
X10707330Y-14169112D02*
X10707330Y-14092922D01*
X10707330Y-14092922D02*
X10716853Y-14073874D01*
X10716853Y-14073874D02*
X10735901Y-14064350D01*
X10735901Y-14064350D02*
X10773996Y-14064350D01*
X10773996Y-14064350D02*
X10793044Y-14073874D01*
X10793044Y-14073874D02*
X10802568Y-14092922D01*
X10802568Y-14092922D02*
X10802568Y-14111969D01*
X10802568Y-14111969D02*
X10707330Y-14131017D01*
X10878758Y-14188160D02*
X10897806Y-14197684D01*
X10897806Y-14197684D02*
X10935901Y-14197684D01*
X10935901Y-14197684D02*
X10954949Y-14188160D01*
X10954949Y-14188160D02*
X10964473Y-14169112D01*
X10964473Y-14169112D02*
X10964473Y-14159588D01*
X10964473Y-14159588D02*
X10954949Y-14140541D01*
X10954949Y-14140541D02*
X10935901Y-14131017D01*
X10935901Y-14131017D02*
X10907330Y-14131017D01*
X10907330Y-14131017D02*
X10888282Y-14121493D01*
X10888282Y-14121493D02*
X10878758Y-14102446D01*
X10878758Y-14102446D02*
X10878758Y-14092922D01*
X10878758Y-14092922D02*
X10888282Y-14073874D01*
X10888282Y-14073874D02*
X10907330Y-14064350D01*
X10907330Y-14064350D02*
X10935901Y-14064350D01*
X10935901Y-14064350D02*
X10954949Y-14073874D01*
X11031139Y-14273874D02*
X11040663Y-14264350D01*
X11040663Y-14264350D02*
X11059711Y-14235779D01*
X11059711Y-14235779D02*
X11069234Y-14216731D01*
X11069234Y-14216731D02*
X11078758Y-14188160D01*
X11078758Y-14188160D02*
X11088282Y-14140541D01*
X11088282Y-14140541D02*
X11088282Y-14102446D01*
X11088282Y-14102446D02*
X11078758Y-14054827D01*
X11078758Y-14054827D02*
X11069234Y-14026255D01*
X11069234Y-14026255D02*
X11059711Y-14007208D01*
X11059711Y-14007208D02*
X11040663Y-13978636D01*
X11040663Y-13978636D02*
X11031139Y-13969112D01*
X5865600Y-14270200D02*
X6065600Y-14470200D01*
X6065600Y-14270200D02*
X5865600Y-14470200D01*
X5965600Y-14270200D02*
X5965600Y-14470200D01*
X5865600Y-14370200D02*
X6065600Y-14370200D01*
X6316853Y-14280731D02*
X6326377Y-14271208D01*
X6326377Y-14271208D02*
X6345424Y-14261684D01*
X6345424Y-14261684D02*
X6393043Y-14261684D01*
X6393043Y-14261684D02*
X6412091Y-14271208D01*
X6412091Y-14271208D02*
X6421615Y-14280731D01*
X6421615Y-14280731D02*
X6431139Y-14299779D01*
X6431139Y-14299779D02*
X6431139Y-14318827D01*
X6431139Y-14318827D02*
X6421615Y-14347398D01*
X6421615Y-14347398D02*
X6307329Y-14461684D01*
X6307329Y-14461684D02*
X6431139Y-14461684D01*
X6516853Y-14442636D02*
X6526377Y-14452160D01*
X6526377Y-14452160D02*
X6516853Y-14461684D01*
X6516853Y-14461684D02*
X6507329Y-14452160D01*
X6507329Y-14452160D02*
X6516853Y-14442636D01*
X6516853Y-14442636D02*
X6516853Y-14461684D01*
X6650186Y-14261684D02*
X6669234Y-14261684D01*
X6669234Y-14261684D02*
X6688282Y-14271208D01*
X6688282Y-14271208D02*
X6697805Y-14280731D01*
X6697805Y-14280731D02*
X6707329Y-14299779D01*
X6707329Y-14299779D02*
X6716853Y-14337874D01*
X6716853Y-14337874D02*
X6716853Y-14385493D01*
X6716853Y-14385493D02*
X6707329Y-14423588D01*
X6707329Y-14423588D02*
X6697805Y-14442636D01*
X6697805Y-14442636D02*
X6688282Y-14452160D01*
X6688282Y-14452160D02*
X6669234Y-14461684D01*
X6669234Y-14461684D02*
X6650186Y-14461684D01*
X6650186Y-14461684D02*
X6631139Y-14452160D01*
X6631139Y-14452160D02*
X6621615Y-14442636D01*
X6621615Y-14442636D02*
X6612091Y-14423588D01*
X6612091Y-14423588D02*
X6602567Y-14385493D01*
X6602567Y-14385493D02*
X6602567Y-14337874D01*
X6602567Y-14337874D02*
X6612091Y-14299779D01*
X6612091Y-14299779D02*
X6621615Y-14280731D01*
X6621615Y-14280731D02*
X6631139Y-14271208D01*
X6631139Y-14271208D02*
X6650186Y-14261684D01*
X6840662Y-14261684D02*
X6859710Y-14261684D01*
X6859710Y-14261684D02*
X6878758Y-14271208D01*
X6878758Y-14271208D02*
X6888282Y-14280731D01*
X6888282Y-14280731D02*
X6897805Y-14299779D01*
X6897805Y-14299779D02*
X6907329Y-14337874D01*
X6907329Y-14337874D02*
X6907329Y-14385493D01*
X6907329Y-14385493D02*
X6897805Y-14423588D01*
X6897805Y-14423588D02*
X6888282Y-14442636D01*
X6888282Y-14442636D02*
X6878758Y-14452160D01*
X6878758Y-14452160D02*
X6859710Y-14461684D01*
X6859710Y-14461684D02*
X6840662Y-14461684D01*
X6840662Y-14461684D02*
X6821615Y-14452160D01*
X6821615Y-14452160D02*
X6812091Y-14442636D01*
X6812091Y-14442636D02*
X6802567Y-14423588D01*
X6802567Y-14423588D02*
X6793043Y-14385493D01*
X6793043Y-14385493D02*
X6793043Y-14337874D01*
X6793043Y-14337874D02*
X6802567Y-14299779D01*
X6802567Y-14299779D02*
X6812091Y-14280731D01*
X6812091Y-14280731D02*
X6821615Y-14271208D01*
X6821615Y-14271208D02*
X6840662Y-14261684D01*
X7031139Y-14261684D02*
X7050186Y-14261684D01*
X7050186Y-14261684D02*
X7069234Y-14271208D01*
X7069234Y-14271208D02*
X7078758Y-14280731D01*
X7078758Y-14280731D02*
X7088282Y-14299779D01*
X7088282Y-14299779D02*
X7097805Y-14337874D01*
X7097805Y-14337874D02*
X7097805Y-14385493D01*
X7097805Y-14385493D02*
X7088282Y-14423588D01*
X7088282Y-14423588D02*
X7078758Y-14442636D01*
X7078758Y-14442636D02*
X7069234Y-14452160D01*
X7069234Y-14452160D02*
X7050186Y-14461684D01*
X7050186Y-14461684D02*
X7031139Y-14461684D01*
X7031139Y-14461684D02*
X7012091Y-14452160D01*
X7012091Y-14452160D02*
X7002567Y-14442636D01*
X7002567Y-14442636D02*
X6993043Y-14423588D01*
X6993043Y-14423588D02*
X6983520Y-14385493D01*
X6983520Y-14385493D02*
X6983520Y-14337874D01*
X6983520Y-14337874D02*
X6993043Y-14299779D01*
X6993043Y-14299779D02*
X7002567Y-14280731D01*
X7002567Y-14280731D02*
X7012091Y-14271208D01*
X7012091Y-14271208D02*
X7031139Y-14261684D01*
X7183520Y-14461684D02*
X7183520Y-14328350D01*
X7183520Y-14347398D02*
X7193043Y-14337874D01*
X7193043Y-14337874D02*
X7212091Y-14328350D01*
X7212091Y-14328350D02*
X7240663Y-14328350D01*
X7240663Y-14328350D02*
X7259710Y-14337874D01*
X7259710Y-14337874D02*
X7269234Y-14356922D01*
X7269234Y-14356922D02*
X7269234Y-14461684D01*
X7269234Y-14356922D02*
X7278758Y-14337874D01*
X7278758Y-14337874D02*
X7297805Y-14328350D01*
X7297805Y-14328350D02*
X7326377Y-14328350D01*
X7326377Y-14328350D02*
X7345424Y-14337874D01*
X7345424Y-14337874D02*
X7354948Y-14356922D01*
X7354948Y-14356922D02*
X7354948Y-14461684D01*
X7450186Y-14461684D02*
X7450186Y-14328350D01*
X7450186Y-14347398D02*
X7459710Y-14337874D01*
X7459710Y-14337874D02*
X7478758Y-14328350D01*
X7478758Y-14328350D02*
X7507329Y-14328350D01*
X7507329Y-14328350D02*
X7526377Y-14337874D01*
X7526377Y-14337874D02*
X7535901Y-14356922D01*
X7535901Y-14356922D02*
X7535901Y-14461684D01*
X7535901Y-14356922D02*
X7545424Y-14337874D01*
X7545424Y-14337874D02*
X7564472Y-14328350D01*
X7564472Y-14328350D02*
X7593043Y-14328350D01*
X7593043Y-14328350D02*
X7612091Y-14337874D01*
X7612091Y-14337874D02*
X7621615Y-14356922D01*
X7621615Y-14356922D02*
X7621615Y-14461684D01*
X8012091Y-14252160D02*
X7840663Y-14509303D01*
X8269234Y-14261684D02*
X8288282Y-14261684D01*
X8288282Y-14261684D02*
X8307329Y-14271208D01*
X8307329Y-14271208D02*
X8316853Y-14280731D01*
X8316853Y-14280731D02*
X8326377Y-14299779D01*
X8326377Y-14299779D02*
X8335901Y-14337874D01*
X8335901Y-14337874D02*
X8335901Y-14385493D01*
X8335901Y-14385493D02*
X8326377Y-14423588D01*
X8326377Y-14423588D02*
X8316853Y-14442636D01*
X8316853Y-14442636D02*
X8307329Y-14452160D01*
X8307329Y-14452160D02*
X8288282Y-14461684D01*
X8288282Y-14461684D02*
X8269234Y-14461684D01*
X8269234Y-14461684D02*
X8250186Y-14452160D01*
X8250186Y-14452160D02*
X8240663Y-14442636D01*
X8240663Y-14442636D02*
X8231139Y-14423588D01*
X8231139Y-14423588D02*
X8221615Y-14385493D01*
X8221615Y-14385493D02*
X8221615Y-14337874D01*
X8221615Y-14337874D02*
X8231139Y-14299779D01*
X8231139Y-14299779D02*
X8240663Y-14280731D01*
X8240663Y-14280731D02*
X8250186Y-14271208D01*
X8250186Y-14271208D02*
X8269234Y-14261684D01*
X8421615Y-14442636D02*
X8431139Y-14452160D01*
X8431139Y-14452160D02*
X8421615Y-14461684D01*
X8421615Y-14461684D02*
X8412091Y-14452160D01*
X8412091Y-14452160D02*
X8421615Y-14442636D01*
X8421615Y-14442636D02*
X8421615Y-14461684D01*
X8554948Y-14261684D02*
X8573996Y-14261684D01*
X8573996Y-14261684D02*
X8593044Y-14271208D01*
X8593044Y-14271208D02*
X8602568Y-14280731D01*
X8602568Y-14280731D02*
X8612091Y-14299779D01*
X8612091Y-14299779D02*
X8621615Y-14337874D01*
X8621615Y-14337874D02*
X8621615Y-14385493D01*
X8621615Y-14385493D02*
X8612091Y-14423588D01*
X8612091Y-14423588D02*
X8602568Y-14442636D01*
X8602568Y-14442636D02*
X8593044Y-14452160D01*
X8593044Y-14452160D02*
X8573996Y-14461684D01*
X8573996Y-14461684D02*
X8554948Y-14461684D01*
X8554948Y-14461684D02*
X8535901Y-14452160D01*
X8535901Y-14452160D02*
X8526377Y-14442636D01*
X8526377Y-14442636D02*
X8516853Y-14423588D01*
X8516853Y-14423588D02*
X8507329Y-14385493D01*
X8507329Y-14385493D02*
X8507329Y-14337874D01*
X8507329Y-14337874D02*
X8516853Y-14299779D01*
X8516853Y-14299779D02*
X8526377Y-14280731D01*
X8526377Y-14280731D02*
X8535901Y-14271208D01*
X8535901Y-14271208D02*
X8554948Y-14261684D01*
X8688282Y-14261684D02*
X8821615Y-14261684D01*
X8821615Y-14261684D02*
X8735901Y-14461684D01*
X8926377Y-14347398D02*
X8907329Y-14337874D01*
X8907329Y-14337874D02*
X8897806Y-14328350D01*
X8897806Y-14328350D02*
X8888282Y-14309303D01*
X8888282Y-14309303D02*
X8888282Y-14299779D01*
X8888282Y-14299779D02*
X8897806Y-14280731D01*
X8897806Y-14280731D02*
X8907329Y-14271208D01*
X8907329Y-14271208D02*
X8926377Y-14261684D01*
X8926377Y-14261684D02*
X8964472Y-14261684D01*
X8964472Y-14261684D02*
X8983520Y-14271208D01*
X8983520Y-14271208D02*
X8993044Y-14280731D01*
X8993044Y-14280731D02*
X9002568Y-14299779D01*
X9002568Y-14299779D02*
X9002568Y-14309303D01*
X9002568Y-14309303D02*
X8993044Y-14328350D01*
X8993044Y-14328350D02*
X8983520Y-14337874D01*
X8983520Y-14337874D02*
X8964472Y-14347398D01*
X8964472Y-14347398D02*
X8926377Y-14347398D01*
X8926377Y-14347398D02*
X8907329Y-14356922D01*
X8907329Y-14356922D02*
X8897806Y-14366446D01*
X8897806Y-14366446D02*
X8888282Y-14385493D01*
X8888282Y-14385493D02*
X8888282Y-14423588D01*
X8888282Y-14423588D02*
X8897806Y-14442636D01*
X8897806Y-14442636D02*
X8907329Y-14452160D01*
X8907329Y-14452160D02*
X8926377Y-14461684D01*
X8926377Y-14461684D02*
X8964472Y-14461684D01*
X8964472Y-14461684D02*
X8983520Y-14452160D01*
X8983520Y-14452160D02*
X8993044Y-14442636D01*
X8993044Y-14442636D02*
X9002568Y-14423588D01*
X9002568Y-14423588D02*
X9002568Y-14385493D01*
X9002568Y-14385493D02*
X8993044Y-14366446D01*
X8993044Y-14366446D02*
X8983520Y-14356922D01*
X8983520Y-14356922D02*
X8964472Y-14347398D01*
X9069234Y-14261684D02*
X9202568Y-14261684D01*
X9202568Y-14261684D02*
X9116853Y-14461684D01*
X9269234Y-14261684D02*
X9269234Y-14299779D01*
X9345425Y-14261684D02*
X9345425Y-14299779D01*
X9640663Y-14537874D02*
X9631139Y-14528350D01*
X9631139Y-14528350D02*
X9612091Y-14499779D01*
X9612091Y-14499779D02*
X9602568Y-14480731D01*
X9602568Y-14480731D02*
X9593044Y-14452160D01*
X9593044Y-14452160D02*
X9583520Y-14404541D01*
X9583520Y-14404541D02*
X9583520Y-14366446D01*
X9583520Y-14366446D02*
X9593044Y-14318827D01*
X9593044Y-14318827D02*
X9602568Y-14290255D01*
X9602568Y-14290255D02*
X9612091Y-14271208D01*
X9612091Y-14271208D02*
X9631139Y-14242636D01*
X9631139Y-14242636D02*
X9640663Y-14233112D01*
X9707330Y-14280731D02*
X9716853Y-14271208D01*
X9716853Y-14271208D02*
X9735901Y-14261684D01*
X9735901Y-14261684D02*
X9783520Y-14261684D01*
X9783520Y-14261684D02*
X9802568Y-14271208D01*
X9802568Y-14271208D02*
X9812091Y-14280731D01*
X9812091Y-14280731D02*
X9821615Y-14299779D01*
X9821615Y-14299779D02*
X9821615Y-14318827D01*
X9821615Y-14318827D02*
X9812091Y-14347398D01*
X9812091Y-14347398D02*
X9697806Y-14461684D01*
X9697806Y-14461684D02*
X9821615Y-14461684D01*
X10059711Y-14461684D02*
X10059711Y-14261684D01*
X10145425Y-14461684D02*
X10145425Y-14356922D01*
X10145425Y-14356922D02*
X10135901Y-14337874D01*
X10135901Y-14337874D02*
X10116853Y-14328350D01*
X10116853Y-14328350D02*
X10088282Y-14328350D01*
X10088282Y-14328350D02*
X10069234Y-14337874D01*
X10069234Y-14337874D02*
X10059711Y-14347398D01*
X10269234Y-14461684D02*
X10250187Y-14452160D01*
X10250187Y-14452160D02*
X10240663Y-14442636D01*
X10240663Y-14442636D02*
X10231139Y-14423588D01*
X10231139Y-14423588D02*
X10231139Y-14366446D01*
X10231139Y-14366446D02*
X10240663Y-14347398D01*
X10240663Y-14347398D02*
X10250187Y-14337874D01*
X10250187Y-14337874D02*
X10269234Y-14328350D01*
X10269234Y-14328350D02*
X10297806Y-14328350D01*
X10297806Y-14328350D02*
X10316853Y-14337874D01*
X10316853Y-14337874D02*
X10326377Y-14347398D01*
X10326377Y-14347398D02*
X10335901Y-14366446D01*
X10335901Y-14366446D02*
X10335901Y-14423588D01*
X10335901Y-14423588D02*
X10326377Y-14442636D01*
X10326377Y-14442636D02*
X10316853Y-14452160D01*
X10316853Y-14452160D02*
X10297806Y-14461684D01*
X10297806Y-14461684D02*
X10269234Y-14461684D01*
X10450187Y-14461684D02*
X10431139Y-14452160D01*
X10431139Y-14452160D02*
X10421615Y-14433112D01*
X10421615Y-14433112D02*
X10421615Y-14261684D01*
X10602568Y-14452160D02*
X10583520Y-14461684D01*
X10583520Y-14461684D02*
X10545425Y-14461684D01*
X10545425Y-14461684D02*
X10526377Y-14452160D01*
X10526377Y-14452160D02*
X10516853Y-14433112D01*
X10516853Y-14433112D02*
X10516853Y-14356922D01*
X10516853Y-14356922D02*
X10526377Y-14337874D01*
X10526377Y-14337874D02*
X10545425Y-14328350D01*
X10545425Y-14328350D02*
X10583520Y-14328350D01*
X10583520Y-14328350D02*
X10602568Y-14337874D01*
X10602568Y-14337874D02*
X10612092Y-14356922D01*
X10612092Y-14356922D02*
X10612092Y-14375969D01*
X10612092Y-14375969D02*
X10516853Y-14395017D01*
X10688282Y-14452160D02*
X10707330Y-14461684D01*
X10707330Y-14461684D02*
X10745425Y-14461684D01*
X10745425Y-14461684D02*
X10764473Y-14452160D01*
X10764473Y-14452160D02*
X10773996Y-14433112D01*
X10773996Y-14433112D02*
X10773996Y-14423588D01*
X10773996Y-14423588D02*
X10764473Y-14404541D01*
X10764473Y-14404541D02*
X10745425Y-14395017D01*
X10745425Y-14395017D02*
X10716853Y-14395017D01*
X10716853Y-14395017D02*
X10697806Y-14385493D01*
X10697806Y-14385493D02*
X10688282Y-14366446D01*
X10688282Y-14366446D02*
X10688282Y-14356922D01*
X10688282Y-14356922D02*
X10697806Y-14337874D01*
X10697806Y-14337874D02*
X10716853Y-14328350D01*
X10716853Y-14328350D02*
X10745425Y-14328350D01*
X10745425Y-14328350D02*
X10764473Y-14337874D01*
X10840663Y-14537874D02*
X10850187Y-14528350D01*
X10850187Y-14528350D02*
X10869234Y-14499779D01*
X10869234Y-14499779D02*
X10878758Y-14480731D01*
X10878758Y-14480731D02*
X10888282Y-14452160D01*
X10888282Y-14452160D02*
X10897806Y-14404541D01*
X10897806Y-14404541D02*
X10897806Y-14366446D01*
X10897806Y-14366446D02*
X10888282Y-14318827D01*
X10888282Y-14318827D02*
X10878758Y-14290255D01*
X10878758Y-14290255D02*
X10869234Y-14271208D01*
X10869234Y-14271208D02*
X10850187Y-14242636D01*
X10850187Y-14242636D02*
X10840663Y-14233112D01*
M02*
