%TF.GenerationSoftware,KiCad,Pcbnew,7.0.7*%
%TF.CreationDate,2023-11-20T10:45:27-05:00*%
%TF.ProjectId,Pocillo Termosensible,506f6369-6c6c-46f2-9054-65726d6f7365,rev?*%
%TF.SameCoordinates,Original*%
%TF.FileFunction,Copper,L1,Top*%
%TF.FilePolarity,Positive*%
%FSLAX46Y46*%
G04 Gerber Fmt 4.6, Leading zero omitted, Abs format (unit mm)*
G04 Created by KiCad (PCBNEW 7.0.7) date 2023-11-20 10:45:27*
%MOMM*%
%LPD*%
G01*
G04 APERTURE LIST*
G04 Aperture macros list*
%AMRoundRect*
0 Rectangle with rounded corners*
0 $1 Rounding radius*
0 $2 $3 $4 $5 $6 $7 $8 $9 X,Y pos of 4 corners*
0 Add a 4 corners polygon primitive as box body*
4,1,4,$2,$3,$4,$5,$6,$7,$8,$9,$2,$3,0*
0 Add four circle primitives for the rounded corners*
1,1,$1+$1,$2,$3*
1,1,$1+$1,$4,$5*
1,1,$1+$1,$6,$7*
1,1,$1+$1,$8,$9*
0 Add four rect primitives between the rounded corners*
20,1,$1+$1,$2,$3,$4,$5,0*
20,1,$1+$1,$4,$5,$6,$7,0*
20,1,$1+$1,$6,$7,$8,$9,0*
20,1,$1+$1,$8,$9,$2,$3,0*%
G04 Aperture macros list end*
%TA.AperFunction,ComponentPad*%
%ADD10C,3.500000*%
%TD*%
%TA.AperFunction,ComponentPad*%
%ADD11R,3.500000X3.500000*%
%TD*%
%TA.AperFunction,ComponentPad*%
%ADD12R,1.700000X1.700000*%
%TD*%
%TA.AperFunction,ComponentPad*%
%ADD13O,1.700000X1.700000*%
%TD*%
%TA.AperFunction,ComponentPad*%
%ADD14R,2.000000X2.000000*%
%TD*%
%TA.AperFunction,ComponentPad*%
%ADD15C,2.000000*%
%TD*%
%TA.AperFunction,ComponentPad*%
%ADD16C,1.524000*%
%TD*%
%TA.AperFunction,ComponentPad*%
%ADD17R,1.600000X1.600000*%
%TD*%
%TA.AperFunction,ComponentPad*%
%ADD18C,1.600000*%
%TD*%
%TA.AperFunction,ComponentPad*%
%ADD19R,1.298000X1.298000*%
%TD*%
%TA.AperFunction,ComponentPad*%
%ADD20C,1.298000*%
%TD*%
%TA.AperFunction,ComponentPad*%
%ADD21O,1.600000X1.600000*%
%TD*%
%TA.AperFunction,ComponentPad*%
%ADD22RoundRect,0.750000X1.000000X-0.750000X1.000000X0.750000X-1.000000X0.750000X-1.000000X-0.750000X0*%
%TD*%
%TA.AperFunction,ComponentPad*%
%ADD23RoundRect,0.875000X0.875000X-0.875000X0.875000X0.875000X-0.875000X0.875000X-0.875000X-0.875000X0*%
%TD*%
%TA.AperFunction,ViaPad*%
%ADD24C,1.200000*%
%TD*%
%TA.AperFunction,Conductor*%
%ADD25C,1.300000*%
%TD*%
G04 APERTURE END LIST*
D10*
%TO.P,BT1,2,-*%
%TO.N,GND*%
X137600000Y-42164000D03*
D11*
%TO.P,BT1,1,+*%
%TO.N,+BATT*%
X65600000Y-42164000D03*
%TD*%
D12*
%TO.P,J2,1,Pin_1*%
%TO.N,+5V*%
X99060000Y-88900000D03*
D13*
%TO.P,J2,2,Pin_2*%
%TO.N,GND*%
X99060000Y-86360000D03*
%TO.P,J2,3,Pin_3*%
%TO.N,D27*%
X99060000Y-83820000D03*
%TO.P,J2,4,Pin_4*%
%TO.N,D26*%
X99060000Y-81280000D03*
%TD*%
D14*
%TO.P,U1,1,3V3*%
%TO.N,unconnected-(U1-3V3-Pad1)*%
X163068000Y-103399000D03*
D15*
%TO.P,U1,2,GND*%
%TO.N,GND*%
X163068000Y-100859000D03*
%TO.P,U1,3,D15*%
%TO.N,unconnected-(U1-D15-Pad3)*%
X163068000Y-98319000D03*
%TO.P,U1,4,D2*%
%TO.N,unconnected-(U1-D2-Pad4)*%
X163068000Y-95779000D03*
%TO.P,U1,5,D4*%
%TO.N,unconnected-(U1-D4-Pad5)*%
X163068000Y-93239000D03*
%TO.P,U1,6,RX2*%
%TO.N,unconnected-(U1-RX2-Pad6)*%
X163068000Y-90699000D03*
%TO.P,U1,7,TX2*%
%TO.N,unconnected-(U1-TX2-Pad7)*%
X163068000Y-88159000D03*
%TO.P,U1,8,D5*%
%TO.N,unconnected-(U1-D5-Pad8)*%
X163068000Y-85619000D03*
%TO.P,U1,9,D18*%
%TO.N,unconnected-(U1-D18-Pad9)*%
X163068000Y-83079000D03*
%TO.P,U1,10,D19*%
%TO.N,unconnected-(U1-D19-Pad10)*%
X163068000Y-80539000D03*
%TO.P,U1,11,D21*%
%TO.N,unconnected-(U1-D21-Pad11)*%
X163068000Y-77999000D03*
%TO.P,U1,12,RX0*%
%TO.N,unconnected-(U1-RX0-Pad12)*%
X163068000Y-75459000D03*
%TO.P,U1,13,TX0*%
%TO.N,unconnected-(U1-TX0-Pad13)*%
X163068000Y-72919000D03*
%TO.P,U1,14,D22*%
%TO.N,unconnected-(U1-D22-Pad14)*%
X163068000Y-70379000D03*
%TO.P,U1,15,D23*%
%TO.N,unconnected-(U1-D23-Pad15)*%
X163068000Y-67839000D03*
%TO.P,U1,16,EN*%
%TO.N,GND*%
X137668000Y-67839000D03*
%TO.P,U1,17,VP*%
%TO.N,unconnected-(U1-VP-Pad17)*%
X137668000Y-70379000D03*
%TO.P,U1,18,VN*%
%TO.N,unconnected-(U1-VN-Pad18)*%
X137668000Y-72919000D03*
%TO.P,U1,19,D34*%
%TO.N,unconnected-(U1-D34-Pad19)*%
X137668000Y-75459000D03*
%TO.P,U1,20,D35*%
%TO.N,unconnected-(U1-D35-Pad20)*%
X137668000Y-77999000D03*
%TO.P,U1,21,D32*%
%TO.N,D32*%
X137668000Y-80539000D03*
%TO.P,U1,22,D33*%
%TO.N,unconnected-(U1-D33-Pad22)*%
X137668000Y-83079000D03*
%TO.P,U1,23,D25*%
%TO.N,D25*%
X137668000Y-85619000D03*
%TO.P,U1,24,D26*%
%TO.N,D26*%
X137668000Y-88159000D03*
%TO.P,U1,25,D27*%
%TO.N,D27*%
X137668000Y-90699000D03*
%TO.P,U1,26,D14*%
%TO.N,unconnected-(U1-D14-Pad26)*%
X137668000Y-93239000D03*
%TO.P,U1,27,D12*%
%TO.N,unconnected-(U1-D12-Pad27)*%
X137668000Y-95779000D03*
%TO.P,U1,28,D13*%
%TO.N,unconnected-(U1-D13-Pad28)*%
X137668000Y-98319000D03*
%TO.P,U1,29,GND*%
%TO.N,GND*%
X137668000Y-100859000D03*
%TO.P,U1,30,VIN*%
%TO.N,+5V*%
X137668000Y-103399000D03*
%TD*%
D16*
%TO.P,U2,1,VIN*%
%TO.N,+VDC*%
X95250000Y-102362000D03*
%TO.P,U2,2,GND*%
%TO.N,GND*%
X95250000Y-104902000D03*
%TO.P,U2,3,GND*%
X95250000Y-107442000D03*
%TO.P,U2,4,BAT*%
%TO.N,+BATT*%
X95250000Y-109982000D03*
%TO.P,U2,5,GND*%
%TO.N,GND*%
X95250000Y-112522000D03*
%TO.P,U2,6,OUT-5V*%
%TO.N,+5V*%
X95250000Y-115062000D03*
%TD*%
D17*
%TO.P,BZ1,1,-*%
%TO.N,Net-(BZ1--)*%
X82550000Y-82540000D03*
D18*
%TO.P,BZ1,2,+*%
%TO.N,+5V*%
X82550000Y-74940000D03*
%TD*%
D12*
%TO.P,J1,1,Pin_1*%
%TO.N,+5V*%
X101625000Y-55895000D03*
D13*
%TO.P,J1,2,Pin_2*%
%TO.N,D32*%
X101625000Y-58435000D03*
%TO.P,J1,3,Pin_3*%
%TO.N,GND*%
X101625000Y-60975000D03*
%TD*%
D19*
%TO.P,Q1,1*%
%TO.N,GND*%
X79271000Y-92247500D03*
D20*
%TO.P,Q1,2*%
%TO.N,Net-(Q1-Pad2)*%
X79271000Y-89707500D03*
%TO.P,Q1,3*%
%TO.N,Net-(BZ1--)*%
X79271000Y-87167500D03*
%TD*%
D18*
%TO.P,R1,1*%
%TO.N,Net-(Q1-Pad2)*%
X91440000Y-91440000D03*
D21*
%TO.P,R1,2*%
%TO.N,D25*%
X91440000Y-81280000D03*
%TD*%
D11*
%TO.P,J3,1*%
%TO.N,+VDC*%
X74168000Y-104236000D03*
D22*
%TO.P,J3,2*%
%TO.N,GND*%
X74168000Y-110236000D03*
D23*
%TO.P,J3,3*%
X78868000Y-107236000D03*
%TD*%
D18*
%TO.P,R2,1*%
%TO.N,D32*%
X114808000Y-60960000D03*
D21*
%TO.P,R2,2*%
%TO.N,+5V*%
X124968000Y-60960000D03*
%TD*%
D24*
%TO.N,GND*%
X125730000Y-104140000D03*
X132080000Y-97790000D03*
%TD*%
D25*
%TO.N,GND*%
X132080000Y-97790000D02*
X125730000Y-104140000D01*
%TD*%
M02*
