M48
; DRILL file {KiCad 7.0.7} date Mon Nov 20 10:45:33 2023
; FORMAT={-:-/ absolute / inch / decimal}
; #@! TF.CreationDate,2023-11-20T10:45:33-05:00
; #@! TF.GenerationSoftware,Kicad,Pcbnew,7.0.7
; #@! TF.FileFunction,Plated,1,2,PTH
FMAT,2
INCH
; #@! TA.AperFunction,Plated,PTH,ViaDrill
T1C0.0250
; #@! TA.AperFunction,Plated,PTH,ComponentDrill
T2C0.0300
; #@! TA.AperFunction,Plated,PTH,ComponentDrill
T3C0.0311
; #@! TA.AperFunction,Plated,PTH,ComponentDrill
T4C0.0315
; #@! TA.AperFunction,Plated,PTH,ComponentDrill
T5C0.0394
; #@! TA.AperFunction,Plated,PTH,ComponentDrill
T6C0.0402
; #@! TA.AperFunction,Plated,PTH,ComponentDrill
T7C0.0787
%
G90
G05
T1
X4.95Y-4.1
X5.2Y-3.85
T2
X3.75Y-4.03
X3.75Y-4.13
X3.75Y-4.23
X3.75Y-4.33
X3.75Y-4.43
X3.75Y-4.53
T3
X3.1209Y-3.4318
X3.1209Y-3.5318
X3.1209Y-3.6318
T4
X3.6Y-3.2
X3.6Y-3.6
X4.52Y-2.4
X4.92Y-2.4
T5
X3.25Y-2.9504
X3.25Y-3.2496
X3.9Y-3.2
X3.9Y-3.3
X3.9Y-3.4
X3.9Y-3.5
X4.001Y-2.2006
X4.001Y-2.3006
X4.001Y-2.4006
T6
X5.42Y-2.6708
X5.42Y-2.7708
X5.42Y-2.8708
X5.42Y-2.9708
X5.42Y-3.0708
X5.42Y-3.1708
X5.42Y-3.2708
X5.42Y-3.3708
X5.42Y-3.4708
X5.42Y-3.5708
X5.42Y-3.6708
X5.42Y-3.7708
X5.42Y-3.8708
X5.42Y-3.9708
X5.42Y-4.0708
X6.42Y-2.6708
X6.42Y-2.7708
X6.42Y-2.8708
X6.42Y-2.9708
X6.42Y-3.0708
X6.42Y-3.1708
X6.42Y-3.2708
X6.42Y-3.3708
X6.42Y-3.4708
X6.42Y-3.5708
X6.42Y-3.6708
X6.42Y-3.7708
X6.42Y-3.8708
X6.42Y-3.9708
X6.42Y-4.0708
T7
X2.5827Y-1.66
X5.4173Y-1.66
T5
G00X2.8806Y-4.1038
M15
G01X2.9594Y-4.1038
M16
G05
G00X2.8806Y-4.34
M15
G01X2.9594Y-4.34
M16
G05
G00X3.105Y-4.2613
M15
G01X3.105Y-4.1825
M16
G05
T0
M30
